<svg width="20" height="20" viewBox="0 0 20 20" fill="none" xmlns="http://www.w3.org/2000/svg">
<g clip-path="url(#clip0_89_4732)">
<path d="M19.1523 7.2543H15.0031L12.6756 1.92489C12.5461 1.62836 12.2007 1.49285 11.9041 1.62243C11.6076 1.75192 11.4721 2.09735 11.6017 2.39391L13.7243 7.25434H6.27558L8.39824 2.39391C8.52773 2.09735 8.39234 1.75196 8.09578 1.62243C7.79926 1.49285 7.45379 1.62828 7.32433 1.92489L4.99683 7.2543H0.847654C0.304881 7.2543 -0.0979318 7.74567 0.0208182 8.26289L2.20578 17.7797C2.29254 18.1576 2.63605 18.4262 3.03262 18.4262H16.9673C17.3639 18.4262 17.7074 18.1576 17.7941 17.7797L19.9791 8.26289C20.0979 7.74571 19.695 7.2543 19.1523 7.2543ZM5.10707 9.05133C5.02879 9.05133 4.94922 9.03555 4.87285 9.00219C4.57629 8.8727 4.44086 8.52731 4.57039 8.23071L5.01054 7.22282H6.28929L5.64429 8.69969C5.54816 8.91996 5.33293 9.05133 5.10707 9.05133ZM7.07027 15.3012C7.07027 15.6248 6.80793 15.8871 6.48433 15.8871C6.16074 15.8871 5.8984 15.6248 5.8984 15.3012V11.0043C5.8984 10.6807 6.16074 10.4184 6.48433 10.4184C6.80793 10.4184 7.07027 10.6807 7.07027 11.0043V15.3012ZM10.5859 15.3012C10.5859 15.6248 10.3236 15.8871 9.99996 15.8871C9.67637 15.8871 9.41402 15.6248 9.41402 15.3012V11.0043C9.41402 10.6807 9.67637 10.4184 9.99996 10.4184C10.3236 10.4184 10.5859 10.6807 10.5859 11.0043V15.3012ZM14.1015 15.3012C14.1015 15.6248 13.8392 15.8871 13.5156 15.8871C13.192 15.8871 12.9296 15.6248 12.9296 15.3012V11.0043C12.9296 10.6807 13.192 10.4184 13.5156 10.4184C13.8392 10.4184 14.1015 10.6807 14.1015 11.0043V15.3012ZM15.127 9.00219C15.0507 9.03555 14.9711 9.05133 14.8928 9.05133C14.667 9.05133 14.4518 8.92 14.3556 8.69973L13.7106 7.22285H14.9893L15.4295 8.23075C15.559 8.52731 15.4236 8.8727 15.127 9.00219Z" fill="#6F73EE"/>
</g>
<defs>
<clipPath id="clip0_89_4732">
<rect width="20" height="20" fill="white"/>
</clipPath>
</defs>
</svg>
