<svg width="13" height="13" viewBox="0 0 13 13" fill="none" xmlns="http://www.w3.org/2000/svg">
<g clip-path="url(#clip0_69_532)">
<path d="M6.49682 0.503818C3.18507 0.50452 0.500933 3.18981 0.501636 6.50156C0.50187 7.64831 0.830949 8.77094 1.4498 9.73636L0.516861 12.1569C0.467179 12.2857 0.531267 12.4303 0.660003 12.48C0.688791 12.4911 0.719358 12.4968 0.750207 12.4967C0.778831 12.4969 0.807244 12.492 0.834158 12.4822L3.33269 11.5903C6.14381 13.3411 9.84198 12.4815 11.5928 9.67036C13.3435 6.85921 12.484 3.16107 9.67283 1.41029C8.71991 0.816781 7.61949 0.502717 6.49682 0.503818Z" fill="#5D6C7B"/>
<path d="M9.35554 7.52451C9.35554 7.52451 8.74341 7.22468 8.36013 7.02481C7.9264 6.80144 7.4167 7.2197 7.17684 7.45756C6.80354 7.31416 6.46258 7.09773 6.17393 6.82093C5.89709 6.53233 5.68065 6.19137 5.5373 5.81802C5.77517 5.57767 6.19241 5.06847 5.97005 4.63473C5.77266 4.25096 5.47036 3.63883 5.47036 3.63883C5.42794 3.55465 5.34176 3.5015 5.24748 3.5014H4.74779C4.02006 3.6271 3.49094 4.26206 3.49853 5.00052C3.49853 5.78504 4.43747 7.29217 5.07061 7.92578C5.70375 8.55939 7.21085 9.49785 7.99587 9.49785C8.73432 9.50544 9.36929 8.9763 9.49498 8.2486V7.74891C9.49505 7.65362 9.44099 7.5666 9.35554 7.52451Z" fill="#F7F7F7"/>
</g>
<defs>
<clipPath id="clip0_69_532">
<rect width="12" height="12" fill="white" transform="translate(0.5 0.5)"/>
</clipPath>
</defs>
</svg>
