<svg width="16" height="17" viewBox="0 0 16 17" fill="none" xmlns="http://www.w3.org/2000/svg">
<g clip-path="url(#clip0_351_5758)">
<path d="M10.9689 13.3376H5.02742C5.17269 13.6872 5.25306 14.0703 5.25306 14.4718C5.25306 14.8733 5.17269 15.2564 5.02742 15.606H10.9689C10.8237 15.2564 10.7433 14.8733 10.7433 14.4718C10.7433 14.0703 10.8237 13.6872 10.9689 13.3376Z" fill="#6F73EE"/>
<path d="M13.8329 11.5091L12.684 0.5H9.57239V1.43744H11.8393L12.9018 11.6187C13.1592 11.5456 13.4307 11.5064 13.7111 11.5064C13.752 11.5064 13.7925 11.5074 13.8329 11.5091Z" fill="#6F73EE"/>
<path d="M15.738 14.4721C15.738 13.3539 14.8282 12.4441 13.7099 12.4441C12.5916 12.4441 11.6818 13.3539 11.6818 14.4721C11.6818 15.5905 12.5916 16.5002 13.7099 16.5002C14.8282 16.5002 15.738 15.5905 15.738 14.4721Z" fill="#6F73EE"/>
<path d="M7.99937 8.08975C8.73933 8.08975 9.45247 8.40129 9.95597 8.94444L10.6435 8.30714C9.96316 7.57322 8.9994 7.15231 7.99937 7.15231C6.99934 7.15231 6.03559 7.57322 5.35529 8.30714L6.04277 8.94444C6.54627 8.40126 7.25942 8.08975 7.99937 8.08975Z" fill="#6F73EE"/>
<path d="M6.50935 9.74643L7.28459 10.2735C7.4458 10.0364 7.71278 9.89486 7.99879 9.89486C8.28481 9.89486 8.55179 10.0364 8.713 10.2735L9.48823 9.74643C9.15235 9.25236 8.59554 8.95741 7.99879 8.95741C7.40205 8.95741 6.84524 9.25239 6.50935 9.74643Z" fill="#6F73EE"/>
<path d="M4.31751 14.4721C4.31751 13.3539 3.40773 12.4441 2.28943 12.4441C1.17112 12.4441 0.261307 13.3539 0.261307 14.4721C0.261307 15.5905 1.17109 16.5002 2.28939 16.5002C3.4077 16.5002 4.31751 15.5905 4.31751 14.4721Z" fill="#6F73EE"/>
</g>
<defs>
<clipPath id="clip0_351_5758">
<rect width="16" height="16" fill="white" transform="translate(0 0.5)"/>
</clipPath>
</defs>
</svg>
