<svg width="16" height="17" viewBox="0 0 16 17" fill="none" xmlns="http://www.w3.org/2000/svg">
<g clip-path="url(#clip0_351_5773)">
<path d="M12.2978 7.10324L11.4526 4.5484H12.1623C12.4462 4.5484 12.6784 4.31614 12.6784 4.03227C12.6784 3.7484 12.4462 3.51614 12.1623 3.51614H10.7397C10.3881 3.51614 10.1397 3.86131 10.2494 4.19356L10.7559 5.72582L10.3881 6.19356H5.98167L5.41715 5.25808H5.54618C5.83005 5.25808 6.06231 5.02582 6.06231 4.74195C6.06231 4.45808 5.83005 4.22582 5.54618 4.22582H3.93328C3.64941 4.22582 3.41715 4.45808 3.41715 4.74195C3.41715 5.02582 3.64941 5.25808 3.93328 5.25808H4.2107L6.93005 9.77421H6.36231C5.96231 7.28389 2.84296 6.11937 0.93973 8.0226C-0.315109 9.27743 -0.318335 11.2871 0.93973 12.5419C2.79457 14.3968 5.9365 13.3516 6.35909 10.8065H7.83973C7.99779 10.8065 8.14941 10.7323 8.24618 10.6097L11.143 6.90647L11.3139 7.42582C10.2849 7.9613 9.57844 9.03872 9.57844 10.2742C9.57844 12.0452 11.0171 13.4839 12.7881 13.4839C14.5591 13.4839 16.001 12.0452 16.001 10.2742C16.001 8.31937 14.2526 6.80001 12.2978 7.10324ZM4.56876 9.77421C4.36231 9.20324 3.81392 8.79679 3.17199 8.79679C2.35263 8.79679 1.68489 9.4613 1.68489 10.2839C1.68489 11.1032 2.34941 11.771 3.17199 11.771C3.80747 11.771 4.34941 11.371 4.56231 10.8097H5.3107C5.07521 11.7516 4.22038 12.4549 3.20425 12.4549C2.00747 12.4549 1.03328 11.4807 1.03328 10.2839C1.03328 9.08711 2.00747 8.11292 3.20425 8.11292C4.22683 8.11292 5.08489 8.8226 5.31392 9.77421H4.56876ZM7.90102 9.37743L6.60425 7.22582H9.58167L7.90102 9.37743ZM12.7913 12.4516C11.5913 12.4516 10.6139 11.4742 10.6139 10.2742C10.6139 9.49356 11.0268 8.80647 11.6462 8.4226L11.8752 9.11292C11.5301 9.38389 11.3075 9.80647 11.3075 10.2807C11.3075 11.1 11.972 11.7678 12.7946 11.7678C13.6171 11.7678 14.2817 11.1032 14.2817 10.2807C14.2817 9.48066 13.6526 8.82905 12.8591 8.79679L12.6301 8.10324C13.9042 8.00647 14.972 9.01937 14.972 10.2742C14.9688 11.4742 13.9913 12.4516 12.7913 12.4516Z" fill="#5D6C7B"/>
</g>
<defs>
<clipPath id="clip0_351_5773">
<rect width="16" height="16" fill="white" transform="translate(0 0.5)"/>
</clipPath>
</defs>
</svg>
