<svg width="16" height="17" viewBox="0 0 16 17" fill="none" xmlns="http://www.w3.org/2000/svg">
<g clip-path="url(#clip0_351_5767)">
<path d="M9.57347 5.26829L10.4352 4.89349L8.8342 0.890625H6.51215V1.82997H8.19796L9.57347 5.26829Z" fill="#5D6C7B"/>
<path d="M14.2558 11.2711C13.6083 9.76628 12.2059 6.508 11.713 5.36263L9.01365 6.53649L9.6643 8.04884L7.34036 12.1629H5.9805C5.9805 10.4075 4.59434 9.15696 3.02188 9.15696H0V10.0963H3.02188C4.08803 10.0963 5.04116 10.938 5.04116 12.1629H4.49289C3.85382 11.3018 2.70312 10.9267 1.66045 11.3096C0.773708 11.6328 0.0898641 12.4681 0.0350689 13.5002C-0.0560476 15.1919 1.54178 16.4644 3.15808 16.0195C3.67409 15.877 4.15222 15.5652 4.49289 15.1061H8.79008L11.0148 11.1863C11.4409 12.1763 11.4735 12.2455 11.4744 12.2527C10.8648 13.1517 10.928 14.3349 11.5871 15.1672C12.5155 16.3586 14.3178 16.4319 15.3398 15.3147C16.5854 13.9714 15.9817 11.8028 14.2558 11.2711Z" fill="#5D6C7B"/>
</g>
<defs>
<clipPath id="clip0_351_5767">
<rect width="16" height="16" fill="white" transform="translate(0 0.5)"/>
</clipPath>
</defs>
</svg>
