<svg width="16" height="17" viewBox="0 0 16 17" fill="none" xmlns="http://www.w3.org/2000/svg">
<g clip-path="url(#clip0_351_5777)">
<path d="M2.69287 2.51941L3.5293 3.35583C4.76929 2.27502 6.33923 1.68469 8 1.68469C8.70837 1.68469 9.40002 1.79248 10.0568 1.99939C10.069 2.00269 10.0809 2.00647 10.0928 2.01086C10.9622 2.29016 11.7693 2.74438 12.4707 3.35583L13.3071 2.51941C11.8939 1.26392 10.0347 0.5 8 0.5C5.96533 0.5 4.10608 1.26392 2.69287 2.51941Z" fill="#5D6C7B"/>
<path d="M13.9806 3.19287L13.1442 4.0293C14.2251 5.26929 14.8153 6.83923 14.8153 8.5C14.8153 10.3204 14.1064 12.0319 12.8192 13.3192C11.532 14.6064 9.82043 15.3153 8 15.3153C6.17957 15.3153 4.46814 14.6064 3.18079 13.3192C1.89355 12.0319 1.18469 10.3204 1.18469 8.5C1.18469 6.83923 1.7749 5.26929 2.85583 4.0293L2.01941 3.19287C0.763916 4.60608 0 6.46533 0 8.5C0 12.9113 3.58875 16.5 8 16.5C12.4113 16.5 16 12.9113 16 8.5C16 6.46533 15.2361 4.60608 13.9806 3.19287Z" fill="#5D6C7B"/>
<path d="M8 2.63708C7.49792 2.63708 7.0105 2.70056 6.54504 2.81982C6.55396 3.83777 6.54211 8.1908 6.54211 8.38843C6.54211 8.96887 6.73987 9.51501 7.26697 9.82141C7.70496 10.076 8.27832 10.0792 8.71912 9.82935C9.27698 9.51318 9.41675 8.99792 9.44958 8.43652C9.45679 8.31299 9.45789 3.65942 9.45789 2.82056C8.9917 2.70081 8.50317 2.63708 8 2.63708ZM8 8.9762C7.73303 8.9762 7.5354 8.75806 7.5238 8.5C7.51233 8.2428 7.75098 8.0238 8 8.0238C8.26697 8.0238 8.4646 8.24194 8.4762 8.5C8.48767 8.7572 8.24902 8.9762 8 8.9762Z" fill="#5D6C7B"/>
<path d="M5.58972 3.15564C3.55566 4.07666 2.13708 6.12573 2.13708 8.5C2.13708 11.7328 4.76709 14.3629 8 14.3629C11.2329 14.3629 13.8629 11.7328 13.8629 8.5C13.8629 6.12573 12.4443 4.07666 10.4103 3.15564V6.03101V7.96216C10.4103 8.41052 10.4377 8.87024 10.2932 9.30225C9.90991 10.4482 8.75378 11.1259 7.56824 10.9297C6.42834 10.7412 5.60022 9.69739 5.58972 8.55957C5.5802 7.53296 5.58972 6.50598 5.58972 5.47949C5.58972 4.70483 5.58972 3.9303 5.58972 3.15564Z" fill="#5D6C7B"/>
</g>
<defs>
<clipPath id="clip0_351_5777">
<rect width="16" height="16" fill="white" transform="translate(0 0.5)"/>
</clipPath>
</defs>
</svg>
