<svg width="16" height="17" viewBox="0 0 16 17" fill="none" xmlns="http://www.w3.org/2000/svg">
<g clip-path="url(#clip0_351_5784)">
<path d="M13.5229 0.5H2.47709C1.11122 0.5 0 1.61122 0 2.97709V14.0229C0 15.3888 1.11122 16.5 2.47709 16.5H13.5229C14.8888 16.5 16 15.3888 16 14.0229V2.97709C16 1.61122 14.8888 0.5 13.5229 0.5ZM12.2359 4.92691L10.4613 6.70172C10.2782 6.88481 9.98153 6.88472 9.79847 6.70181C9.31747 6.221 8.67878 5.95625 8 5.95625C7.32122 5.95625 6.68253 6.22103 6.20153 6.70181C6.01844 6.88475 5.72172 6.88475 5.53866 6.70172L3.76406 4.92691C3.58103 4.74384 3.58106 4.44706 3.76409 4.264C4.89622 3.13184 6.40056 2.50834 8 2.50834C9.59944 2.50834 11.1038 3.13184 12.2359 4.26403C12.4189 4.44706 12.419 4.74384 12.2359 4.92691Z" fill="#5D6C7B"/>
<path d="M4.77444 4.61039L5.89316 5.72924C6.49644 5.26821 7.22976 5.01864 8.00098 5.01864C8.77219 5.01864 9.50551 5.26821 10.1088 5.72924L11.2275 4.61039C10.3219 3.8562 9.19273 3.4457 8.00098 3.4457C6.80923 3.4457 5.68001 3.8562 4.77444 4.61039Z" fill="#5D6C7B"/>
</g>
<defs>
<clipPath id="clip0_351_5784">
<rect width="16" height="16" fill="white" transform="translate(0 0.5)"/>
</clipPath>
</defs>
</svg>
