<svg width="136" height="45" viewBox="0 0 136 45" fill="none" xmlns="http://www.w3.org/2000/svg">
<g clip-path="url(#clip0_327_3627)">
<path d="M124.357 -9.78906e-05H11.1817C10.7692 -9.78906e-05 10.3616 -9.78906e-05 9.95017 0.00215211C9.60576 0.00440211 9.26408 0.0109384 8.91636 0.0164396C8.16093 0.0253291 7.40729 0.0917879 6.66197 0.215238C5.9177 0.341376 5.19674 0.579182 4.52348 0.920613C3.85104 1.26493 3.23662 1.71234 2.7025 2.24661C2.16557 2.77937 1.718 3.39517 1.377 4.07033C1.03506 4.74415 0.797951 5.46621 0.673874 6.21157C0.548618 6.95598 0.481216 7.70899 0.472274 8.46382C0.461834 8.80874 0.460732 9.15481 0.455231 9.49978V35.5033C0.460732 35.8526 0.461834 36.191 0.472274 36.5405C0.481219 37.2952 0.548621 38.0482 0.673874 38.7926C0.797609 39.5384 1.03473 40.2609 1.377 40.9349C1.71785 41.6079 2.16548 42.2212 2.7025 42.751C3.23459 43.2877 3.84941 43.7354 4.52348 44.0771C5.19673 44.4194 5.91761 44.6586 6.66197 44.7867C7.40741 44.9092 8.16098 44.9757 8.91636 44.9856C9.26408 44.9933 9.60576 44.9977 9.95017 44.9977C10.3616 44.9999 10.7692 44.9999 11.1817 44.9999H124.357C124.761 44.9999 125.172 44.9999 125.576 44.9977C125.919 44.9977 126.271 44.9933 126.613 44.9856C127.367 44.9762 128.12 44.9097 128.863 44.7867C129.61 44.6577 130.334 44.4186 131.01 44.0771C131.684 43.7352 132.298 43.2875 132.83 42.751C133.365 42.2191 133.814 41.6063 134.159 40.9349C134.499 40.2604 134.733 39.538 134.855 38.7926C134.981 38.0481 135.051 37.2953 135.064 36.5405C135.069 36.191 135.069 35.8526 135.069 35.5033C135.077 35.0946 135.077 34.6881 135.077 34.2728V10.728C135.077 10.3161 135.077 9.90737 135.069 9.49978C135.069 9.15481 135.069 8.80874 135.064 8.46377C135.051 7.70888 134.981 6.95604 134.855 6.21152C134.733 5.46659 134.498 4.74459 134.159 4.07029C133.464 2.717 132.363 1.61543 131.01 0.920512C130.334 0.579915 129.61 0.342173 128.863 0.215137C128.12 0.0911427 127.367 0.0246608 126.613 0.0162821C126.271 0.0107921 125.919 0.00419961 125.576 0.00200586C125.172 -0.000244141 124.761 -0.000244141 124.357 -0.000244141V-9.78906e-05Z" fill="white"/>
<path d="M28.5765 22.3748C28.5891 21.3983 28.8485 20.4409 29.3305 19.5917C29.8125 18.7424 30.5015 18.0288 31.3334 17.5174C30.8049 16.7626 30.1078 16.1415 29.2972 15.7033C28.4867 15.2651 27.5852 15.022 26.6642 14.9931C24.6997 14.7869 22.7952 16.1687 21.7941 16.1687C20.7737 16.1687 19.2323 15.0136 17.5726 15.0478C16.499 15.0825 15.4527 15.3946 14.5357 15.9539C13.6186 16.5132 12.8621 17.3005 12.3398 18.2391C10.0773 22.1563 11.7649 27.9134 13.9322 31.0798C15.0166 32.6303 16.2839 34.3623 17.9422 34.3008C19.5649 34.2335 20.1709 33.2661 22.1296 33.2661C24.0702 33.2661 24.6388 34.3008 26.3307 34.2618C28.0719 34.2335 29.169 32.7044 30.2153 31.1392C30.9944 30.0344 31.594 28.8134 31.9917 27.5213C30.9801 27.0935 30.1168 26.3773 29.5095 25.4621C28.9022 24.5469 28.5777 23.4732 28.5765 22.3748Z" fill="#282739"/>
<path d="M25.3808 12.911C26.3302 11.7713 26.7979 10.3064 26.6847 8.82739C25.2342 8.97973 23.8944 9.67296 22.9322 10.7689C22.4617 11.3044 22.1014 11.9272 21.8718 12.602C21.6422 13.2768 21.5479 13.9901 21.5942 14.7014C22.3197 14.7088 23.0374 14.5516 23.6933 14.2415C24.3492 13.9314 24.9262 13.4765 25.3808 12.911Z" fill="#282739"/>
<path d="M48.0448 30.5319H42.7197L41.4409 34.3079H39.1854L44.2292 20.3376H46.5726L51.6164 34.3079H49.3225L48.0448 30.5319ZM43.2712 28.7895H47.4922L45.4114 22.6613H45.3531L43.2712 28.7895Z" fill="#282739"/>
<path d="M62.5093 29.2154C62.5093 32.3806 60.8152 34.4141 58.2587 34.4141C57.6111 34.448 56.967 34.2988 56.4003 33.9837C55.8335 33.6685 55.3669 33.2001 55.054 32.6321H55.0056V37.677H52.9149V24.1221H54.9386V25.8162H54.9771C55.3044 25.2509 55.7788 24.785 56.3499 24.4679C56.921 24.1508 57.5674 23.9945 58.2202 24.0155C60.8053 24.0156 62.5093 26.059 62.5093 29.2154ZM60.3604 29.2154C60.3604 27.1533 59.2947 25.7975 57.6687 25.7975C56.0713 25.7975 54.9969 27.1818 54.9969 29.2154C54.9969 31.2676 56.0713 32.642 57.6687 32.642C59.2947 32.642 60.3604 31.2962 60.3604 29.2154H60.3604Z" fill="#282739"/>
<path d="M73.7203 29.2154C73.7203 32.3806 72.0257 34.4141 69.4692 34.4141C68.8216 34.448 68.1775 34.2988 67.6107 33.9837C67.044 33.6685 66.5774 33.2001 66.2645 32.6321H66.2161V37.677H64.1254V24.1221H66.1491V25.8162H66.1875C66.5149 25.2509 66.9893 24.785 67.5604 24.4679C68.1315 24.1508 68.7778 23.9945 69.4307 24.0155C72.0158 24.0156 73.7203 26.059 73.7203 29.2154ZM71.5709 29.2154C71.5709 27.1533 70.5052 25.7975 68.8792 25.7975C67.2818 25.7975 66.2073 27.1818 66.2073 29.2154C66.2073 31.2676 67.2818 32.642 68.8792 32.642C70.5052 32.642 71.5709 31.2962 71.5709 29.2154Z" fill="#282739"/>
<path d="M81.1284 30.4155C81.2833 31.8008 82.6292 32.7105 84.4683 32.7105C86.2305 32.7105 87.4983 31.8008 87.4983 30.5516C87.4983 29.4673 86.7336 28.818 84.9231 28.3731L83.1125 27.9369C80.5472 27.3173 79.3563 26.1176 79.3563 24.1708C79.3563 21.7604 81.4569 20.1047 84.4386 20.1047C87.3917 20.1047 89.4154 21.7604 89.4835 24.1708H87.373C87.2467 22.7766 86.0942 21.9351 84.41 21.9351C82.7258 21.9351 81.5733 22.7865 81.5733 24.0258C81.5733 25.0134 82.3094 25.5946 84.1101 26.0395L85.6493 26.4174C88.5156 27.0953 89.7054 28.2467 89.7054 30.2901C89.7054 32.9038 87.6246 34.5407 84.3133 34.5407C81.2151 34.5407 79.1234 32.9422 78.9882 30.4154L81.1284 30.4155Z" fill="#282739"/>
<path d="M94.2197 21.7122V24.1226H96.1566V25.7782H94.2197V31.3933C94.2197 32.2656 94.6076 32.6721 95.459 32.6721C95.6889 32.6681 95.9185 32.652 96.1467 32.6237V34.2695C95.7639 34.341 95.3748 34.3734 94.9855 34.3662C92.9234 34.3662 92.1191 33.5916 92.1191 31.6163V25.7782H90.6382V24.1226H92.1191V21.7122H94.2197Z" fill="#282739"/>
<path d="M97.2772 29.2158C97.2772 26.0111 99.1647 23.9973 102.108 23.9973C105.061 23.9973 106.94 26.0111 106.94 29.2158C106.94 32.4293 105.071 34.4343 102.108 34.4343C99.146 34.4343 97.2772 32.4293 97.2772 29.2158ZM104.809 29.2158C104.809 27.0175 103.802 25.72 102.108 25.72C100.414 25.72 99.4064 27.0273 99.4064 29.2158C99.4064 31.423 100.414 32.7106 102.108 32.7106C103.802 32.7106 104.809 31.423 104.809 29.2158H104.809Z" fill="#282739"/>
<path d="M108.663 24.122H110.658V25.8557H110.706C110.841 25.3142 111.158 24.8357 111.604 24.5006C112.05 24.1655 112.598 23.9942 113.156 24.0154C113.397 24.0146 113.637 24.0408 113.872 24.0935V26.049C113.568 25.9561 113.251 25.9134 112.933 25.9227C112.629 25.9104 112.326 25.9639 112.045 26.0797C111.764 26.1954 111.511 26.3706 111.304 26.5932C111.097 26.8159 110.941 27.0806 110.846 27.3694C110.751 27.6581 110.72 27.964 110.754 28.2661V34.3074H108.663L108.663 24.122Z" fill="#282739"/>
<path d="M123.511 31.3164C123.23 33.1654 121.43 34.4343 119.126 34.4343C116.163 34.4343 114.324 32.4491 114.324 29.2642C114.324 26.0693 116.173 23.9973 119.038 23.9973C121.856 23.9973 123.628 25.9331 123.628 29.0214V29.7377H116.434V29.864C116.401 30.2389 116.448 30.6165 116.572 30.9718C116.696 31.3271 116.894 31.652 117.153 31.9249C117.412 32.1977 117.726 32.4123 118.075 32.5544C118.423 32.6965 118.798 32.7629 119.174 32.749C119.668 32.7953 120.164 32.6809 120.588 32.4228C121.012 32.1646 121.341 31.7766 121.526 31.3164L123.511 31.3164ZM116.444 28.2765H121.536C121.555 27.9394 121.504 27.6022 121.386 27.2858C121.268 26.9694 121.086 26.6808 120.852 26.4381C120.617 26.1954 120.335 26.0037 120.023 25.8752C119.711 25.7467 119.375 25.6842 119.038 25.6914C118.697 25.6894 118.36 25.7548 118.045 25.8839C117.73 26.013 117.443 26.2032 117.202 26.4435C116.961 26.6838 116.77 26.9696 116.64 27.2842C116.51 27.5988 116.443 27.936 116.444 28.2765V28.2765Z" fill="#282739"/>
<path d="M41.7858 12.6601H42.6834C42.8379 12.6793 42.9947 12.6663 43.144 12.622C43.2932 12.5776 43.4317 12.5028 43.5506 12.4022C43.6695 12.3017 43.7663 12.1776 43.8348 12.0378C43.9034 11.898 43.9423 11.7456 43.949 11.59C43.949 10.9709 43.4832 10.571 42.6933 10.571C42.535 10.5489 42.3738 10.5587 42.2194 10.5999C42.065 10.6411 41.9203 10.7128 41.7941 10.8108C41.6678 10.9088 41.5624 11.0311 41.4842 11.1705C41.406 11.3099 41.3565 11.4636 41.3387 11.6224H40.3532C40.3701 11.3341 40.4463 11.0523 40.5768 10.7947C40.7074 10.537 40.8896 10.309 41.1121 10.1249C41.3346 9.9407 41.5927 9.80431 41.8702 9.72419C42.1477 9.64407 42.4387 9.62193 42.7251 9.65915C44.0468 9.65915 44.9774 10.3991 44.9774 11.4642C44.9805 11.821 44.8611 12.1681 44.6391 12.4475C44.4172 12.727 44.1061 12.9218 43.7579 12.9995V13.0786C44.1707 13.097 44.5596 13.278 44.8393 13.5822C45.1191 13.8863 45.2671 14.2889 45.2509 14.7019C45.2204 14.9988 45.1308 15.2865 44.9876 15.5484C44.8444 15.8102 44.6504 16.0408 44.4169 16.2267C44.1834 16.4126 43.9151 16.55 43.6278 16.6308C43.3405 16.7117 43.04 16.7343 42.7438 16.6975C42.447 16.738 42.1451 16.7183 41.8561 16.6396C41.5671 16.5609 41.2969 16.4248 41.0616 16.2394C40.8263 16.0541 40.6308 15.8232 40.4866 15.5607C40.3424 15.2981 40.2526 15.0092 40.2225 14.7112H41.2233C41.2837 15.3534 41.8737 15.7676 42.7438 15.7676C43.6139 15.7676 44.1819 15.3023 44.1819 14.6464C44.1819 13.9812 43.6469 13.5714 42.712 13.5714H41.7858V12.6601Z" fill="#282739"/>
<path d="M46.388 15.1018C46.388 14.1899 47.068 13.6642 48.2721 13.5895L49.6443 13.5104V13.0732C49.6443 12.5381 49.2916 12.236 48.6072 12.236C48.0491 12.236 47.6635 12.4409 47.5514 12.7991H46.5835C46.6857 11.929 47.5053 11.3708 48.6544 11.3708C49.9245 11.3708 50.6408 12.0031 50.6408 13.0732V16.5344H49.6773V15.8225H49.5982C49.4376 16.0779 49.2122 16.2861 48.9448 16.4258C48.6775 16.5655 48.3779 16.6318 48.0766 16.6179C47.8639 16.64 47.649 16.6173 47.4456 16.5513C47.2422 16.4852 47.055 16.3773 46.8959 16.2345C46.7368 16.0916 46.6094 15.9171 46.5219 15.722C46.4344 15.5269 46.3888 15.3156 46.388 15.1018ZM49.6443 14.6689V14.2454L48.4072 14.3245C47.7096 14.3712 47.3932 14.6085 47.3932 15.0551C47.3932 15.511 47.7887 15.7763 48.3325 15.7763C48.4919 15.7925 48.6529 15.7764 48.8059 15.7291C48.9589 15.6817 49.1008 15.6041 49.2232 15.5007C49.3456 15.3974 49.4459 15.2705 49.5183 15.1276C49.5906 14.9847 49.6335 14.8287 49.6443 14.6689Z" fill="#282739"/>
<path d="M53.294 12.3103V16.5345H52.2942V11.4688H55.6297V12.3102L53.294 12.3103Z" fill="#282739"/>
<path d="M61.6886 14.0003C61.6886 15.6097 60.8745 16.6189 59.5957 16.6189C59.2818 16.6403 58.9683 16.5716 58.6921 16.4208C58.4159 16.2701 58.1885 16.0436 58.0368 15.768H57.9577V18.2196H56.9579V11.4696H57.9203V12.3067H57.995C58.1495 12.0215 58.3799 11.7845 58.6606 11.6219C58.9413 11.4594 59.2615 11.3776 59.5858 11.3855C60.8745 11.3855 61.6886 12.3902 61.6886 14.0003ZM60.6603 14.0003C60.6603 12.9302 60.1538 12.2836 59.3068 12.2836C58.4653 12.2836 57.939 12.9439 57.939 14.0047C57.939 15.0604 58.4652 15.7213 59.3024 15.7213C60.1538 15.7213 60.6603 15.0747 60.6603 14.0003Z" fill="#282739"/>
<path d="M63.0202 18.3489V17.4882C63.1283 17.5019 63.2374 17.5081 63.3464 17.5068C63.5594 17.5226 63.7707 17.4592 63.9398 17.3287C64.1089 17.1982 64.2239 17.0099 64.2627 16.7999L64.3374 16.5532L62.5038 11.4688H63.5925L64.8626 15.4925H64.9417L66.2073 11.4688H67.2675L65.3789 16.7438C64.9461 17.9765 64.4671 18.372 63.4344 18.372C63.3508 18.372 63.1135 18.3627 63.0202 18.3489Z" fill="#282739"/>
<path d="M68.0464 15.0971H69.0418C69.1395 15.5437 69.5581 15.7766 70.1437 15.7766C70.8095 15.7766 71.2181 15.4833 71.2181 15.0273C71.2181 14.539 70.8512 14.3061 70.1437 14.3061H69.3856V13.5294H70.1305C70.7347 13.5294 71.0424 13.297 71.0424 12.8735C71.0424 12.5016 70.7446 12.2176 70.1305 12.2176C69.5713 12.2176 69.1626 12.4549 69.0977 12.8548H68.1343C68.2063 12.3953 68.4558 11.9824 68.8291 11.705C69.2024 11.4275 69.6697 11.3076 70.1305 11.3711C71.3346 11.3711 72.0234 11.9155 72.0234 12.7713C72.0291 13.0097 71.9527 13.2427 71.8071 13.4315C71.6615 13.6202 71.4556 13.7533 71.2236 13.8084V13.8875C71.4998 13.9232 71.7532 14.0589 71.9359 14.269C72.1185 14.4791 72.2177 14.749 72.2146 15.0274C72.2146 15.9904 71.395 16.6275 70.1437 16.6275C69.0374 16.6275 68.1387 16.1205 68.0464 15.0971Z" fill="#282739"/>
<path d="M73.6544 16.5345V11.4688H74.6454V14.9531H74.7245L77.0591 11.4688H78.05V16.5346H77.0591V13.0316H76.9843L74.6454 16.5346L73.6544 16.5345Z" fill="#282739"/>
<path d="M83.5091 12.3112H81.9139V16.5355H80.913V12.3112H79.3178V11.4697H83.5091V12.3112Z" fill="#282739"/>
<path d="M88.8946 15.1667C88.7584 15.6297 88.4638 16.0301 88.0624 16.2979C87.661 16.5658 87.1782 16.6842 86.6984 16.6323C86.3647 16.6411 86.033 16.5772 85.7264 16.445C85.4199 16.3127 85.1458 16.1154 84.9231 15.8666C84.7005 15.6178 84.5346 15.3236 84.4371 15.0043C84.3396 14.685 84.3127 14.3483 84.3583 14.0175C84.3139 13.6858 84.3412 13.3484 84.4385 13.0281C84.5358 12.7079 84.7008 12.4122 84.9223 12.1613C85.1438 11.9103 85.4166 11.7099 85.7222 11.5735C86.0279 11.4372 86.3593 11.3681 86.694 11.3709C88.1036 11.3709 88.955 12.3339 88.955 13.9247V14.2735H85.3779V14.3296C85.362 14.5155 85.3853 14.7027 85.4461 14.8791C85.5069 15.0556 85.604 15.2173 85.731 15.354C85.8581 15.4907 86.0123 15.5992 86.1839 15.6728C86.3554 15.7463 86.5404 15.7831 86.727 15.7808C86.966 15.8094 87.2081 15.7663 87.4225 15.6569C87.6369 15.5476 87.8139 15.3769 87.9311 15.1667L88.8946 15.1667ZM85.3778 13.5342H87.9355C87.9481 13.3642 87.925 13.1935 87.8678 13.033C87.8106 12.8725 87.7204 12.7258 87.6031 12.6022C87.4857 12.4786 87.3439 12.3809 87.1866 12.3154C87.0292 12.2499 86.86 12.218 86.6896 12.2218C86.5167 12.2195 86.345 12.2518 86.1847 12.317C86.0245 12.3821 85.8789 12.4787 85.7566 12.601C85.6343 12.7233 85.5378 12.8689 85.4728 13.0292C85.4077 13.1895 85.3754 13.3612 85.3779 13.5342H85.3778Z" fill="#282739"/>
<path d="M93.1331 11.4688H95.4172C96.4082 11.4688 96.9893 11.9708 96.9893 12.7569C96.9909 13.0063 96.9067 13.2487 96.7509 13.4435C96.5951 13.6383 96.3772 13.7736 96.1335 13.8269V13.906C96.4293 13.9247 96.7067 14.0563 96.9083 14.2737C97.1099 14.491 97.2203 14.7775 97.2167 15.0739C97.2167 15.9577 96.5521 16.5345 95.4403 16.5345H93.1331V11.4688ZM94.1241 12.2361V13.5479H95.1151C95.7193 13.5479 96.0083 13.3155 96.0083 12.8871C96.0083 12.4921 95.7567 12.2361 95.2261 12.2361L94.1241 12.2361ZM94.1241 14.2829V15.7672H95.3096C95.9006 15.7672 96.217 15.5062 96.217 15.0272C96.217 14.5202 95.8589 14.2829 95.1843 14.2829L94.1241 14.2829Z" fill="#282739"/>
</g>
<defs>
<clipPath id="clip0_327_3627">
<rect width="134.622" height="45" fill="white" transform="translate(0.455231)"/>
</clipPath>
</defs>
</svg>
