<svg width="26" height="11" viewBox="0 0 26 11" fill="none" xmlns="http://www.w3.org/2000/svg">
<path fill-rule="evenodd" clip-rule="evenodd" d="M12.0944 8.65901V5.7177H13.6124C14.2345 5.7177 14.7596 5.50926 15.1876 5.09817L15.2903 4.99395C16.0722 4.14283 16.0208 2.81692 15.1876 2.02948C14.771 1.6126 14.2003 1.38679 13.6124 1.39837H11.1755V8.65901H12.0944ZM12.0944 4.82602V2.29001H13.6356C13.9666 2.29001 14.2806 2.41739 14.5146 2.64899C15.0112 3.13535 15.0226 3.94594 14.5432 4.44967C14.3091 4.69864 13.9781 4.8376 13.6356 4.82602H12.0944ZM19.5763 4.07912C19.1825 3.71435 18.646 3.52907 17.9669 3.52907C17.0937 3.52907 16.4374 3.85331 16.0037 4.496L16.8141 5.01131C17.1108 4.57127 17.516 4.35125 18.0297 4.35125C18.355 4.35125 18.6688 4.47284 18.9142 4.69286C19.1539 4.9013 19.2909 5.20238 19.2909 5.52082V5.73505C18.9371 5.53819 18.4919 5.43398 17.9441 5.43398C17.3049 5.43398 16.7912 5.58451 16.4089 5.89138C16.0265 6.19825 15.8325 6.60355 15.8325 7.11886C15.821 7.58785 16.0208 8.03368 16.3746 8.33476C16.7342 8.659 17.1907 8.82112 17.7272 8.82112C18.3607 8.82112 18.8629 8.53741 19.2453 7.96999H19.2852V8.659H20.1641V5.59609C20.1641 4.95341 19.97 4.44389 19.5763 4.07912ZM17.0825 7.74419C16.8941 7.60523 16.7799 7.37942 16.7799 7.13624C16.7799 6.86411 16.9055 6.6383 17.151 6.45881C17.4021 6.27932 17.716 6.18668 18.0871 6.18668C18.6008 6.18089 19.0003 6.29669 19.2857 6.52829C19.2857 6.92201 19.1316 7.26362 18.8291 7.55312C18.5551 7.83103 18.1841 7.98736 17.796 7.98736C17.5391 7.99315 17.2879 7.9063 17.0825 7.74419ZM22.1388 10.8418L25.2091 3.69118H24.2104L22.7894 7.25781H22.7722L21.3169 3.69118H20.3182L22.3328 8.34054L21.1914 10.8418H22.1388Z" fill="#282739"/>
<path d="M8.92222 5.08069C8.92222 4.79698 8.8994 4.51327 8.85374 4.23535H4.97867V5.83918H7.1987C7.10739 6.35449 6.81062 6.81768 6.37689 7.10718V8.14938H7.70092C8.47708 7.42563 8.92222 6.35449 8.92222 5.08069Z" fill="#4285F4"/>
<path d="M4.97885 9.15688C6.08602 9.15688 7.02197 8.78632 7.7011 8.14942L6.37707 7.10723C6.00612 7.36198 5.53243 7.50673 4.97885 7.50673C3.90593 7.50673 2.99851 6.77141 2.67321 5.78711H1.30923V6.86405C2.00549 8.27101 3.42654 9.15688 4.97885 9.15688Z" fill="#34A853"/>
<path d="M2.67336 5.7871C2.50212 5.27179 2.50212 4.71017 2.67336 4.18907V3.11792H1.30916C0.721246 4.29329 0.721246 5.68288 1.30916 6.85825L2.67336 5.7871Z" fill="#FBBC04"/>
<path d="M4.97885 2.46949C5.56668 2.45791 6.13167 2.68372 6.55399 3.09481L7.72964 1.90207C6.98202 1.19569 6.00041 0.807764 4.97885 0.819344C3.42654 0.819344 2.00549 1.711 1.30923 3.11797L2.67321 4.1949C2.99851 3.20482 3.90593 2.46949 4.97885 2.46949Z" fill="#EA4335"/>
</svg>
