<svg width="22" height="14" viewBox="0 0 22 14" fill="none" xmlns="http://www.w3.org/2000/svg">
<path d="M13.347 7.12359C13.347 10.8355 10.3724 13.8446 6.70314 13.8446C3.03383 13.8446 0.0592651 10.8355 0.0592651 7.12359C0.0592651 3.41168 3.03383 0.402588 6.70314 0.402588C10.3724 0.402588 13.347 3.41168 13.347 7.12359Z" fill="#ED0006"/>
<path d="M21.9661 7.12359C21.9661 10.8355 18.9915 13.8446 15.3222 13.8446C11.6529 13.8446 8.67834 10.8355 8.67834 7.12359C8.67834 3.41168 11.6529 0.402588 15.3222 0.402588C18.9915 0.402588 21.9661 3.41168 21.9661 7.12359Z" fill="#0099DF"/>
<path fill-rule="evenodd" clip-rule="evenodd" d="M11.0127 12.2391C12.4412 11.0064 13.347 9.17206 13.347 7.12372C13.347 5.07538 12.4412 3.24106 11.0127 2.0083C9.58421 3.24106 8.67841 5.07538 8.67841 7.12372C8.67841 9.17206 9.58421 11.0064 11.0127 12.2391Z" fill="#6C6BBD"/>
</svg>
