<svg width="23" height="14" viewBox="0 0 23 14" fill="none" xmlns="http://www.w3.org/2000/svg">
<path fill-rule="evenodd" clip-rule="evenodd" d="M11.0672 12.239C9.90702 13.2402 8.4021 13.8446 6.75764 13.8446C3.08833 13.8446 0.11377 10.8355 0.11377 7.12359C0.11377 3.41168 3.08833 0.402588 6.75764 0.402588C8.4021 0.402588 9.90702 1.00697 11.0672 2.00814C12.2273 1.00698 13.7323 0.402591 15.3767 0.402591C19.046 0.402591 22.0206 3.41168 22.0206 7.12359C22.0206 10.8355 19.046 13.8446 15.3767 13.8446C13.7323 13.8446 12.2273 13.2402 11.0672 12.239Z" fill="#ED0006"/>
<path fill-rule="evenodd" clip-rule="evenodd" d="M11.0672 12.239C12.4957 11.0063 13.4015 9.17194 13.4015 7.12359C13.4015 5.07523 12.4957 3.24089 11.0672 2.00814C12.2274 1.00697 13.7323 0.402588 15.3767 0.402588C19.046 0.402588 22.0206 3.41168 22.0206 7.12359C22.0206 10.8355 19.046 13.8446 15.3767 13.8446C13.7323 13.8446 12.2274 13.2402 11.0672 12.239Z" fill="#F9A000"/>
<path fill-rule="evenodd" clip-rule="evenodd" d="M11.0672 12.2391C12.4957 11.0064 13.4015 9.17206 13.4015 7.12372C13.4015 5.07538 12.4957 3.24106 11.0672 2.0083C9.63872 3.24106 8.73291 5.07538 8.73291 7.12372C8.73291 9.17206 9.63872 11.0064 11.0672 12.2391Z" fill="#FF5E00"/>
</svg>
