<svg width="152" height="45" viewBox="0 0 152 45" fill="none" xmlns="http://www.w3.org/2000/svg">
<g clip-path="url(#clip0_327_3559)">
<path d="M145.746 44.8882H5.82098C2.74262 44.8882 0.223961 42.3695 0.223961 39.2912V5.70908C0.223961 2.63072 2.74262 0.112064 5.82098 0.112064H145.746C148.825 0.112064 151.343 2.63072 151.343 5.70908V39.2912C151.343 42.3695 148.825 44.8882 145.746 44.8882Z" fill="white"/>
<path d="M119.928 33.6942H122.017V19.7003H119.928V33.6942ZM138.742 24.7412L136.348 30.8082H136.276L133.791 24.7412H131.541L135.268 33.221L133.143 37.9378H135.322L141.065 24.7412H138.742ZM126.897 32.1047C126.212 32.1047 125.258 31.7628 125.258 30.9163C125.258 29.8361 126.447 29.4221 127.472 29.4221C128.391 29.4221 128.822 29.6201 129.381 29.8904C129.218 31.1865 128.102 32.1047 126.897 32.1047ZM127.149 24.435C125.636 24.435 124.07 25.1014 123.422 26.5777L125.276 27.3516C125.672 26.5777 126.41 26.3254 127.184 26.3254C128.265 26.3254 129.363 26.9738 129.381 28.126V28.2699C129.002 28.0538 128.193 27.7299 127.202 27.7299C125.204 27.7299 123.169 28.8278 123.169 30.8803C123.169 32.7528 124.808 33.9591 126.644 33.9591C128.049 33.9591 128.822 33.329 129.309 32.591H129.381V33.671H131.397V28.3057C131.397 25.8216 129.543 24.435 127.149 24.435ZM114.24 26.4447H111.269V21.6479H114.24C115.801 21.6479 116.688 22.9409 116.688 24.0463C116.688 25.1307 115.801 26.4447 114.24 26.4447ZM114.186 19.7003H109.181V33.6942H111.269V28.3923H114.186C116.501 28.3923 118.777 26.7163 118.777 24.0463C118.777 21.3764 116.501 19.7003 114.186 19.7003ZM86.8937 32.1073C85.4507 32.1073 84.2426 30.8991 84.2426 29.2397C84.2426 27.5629 85.4507 26.3363 86.8937 26.3363C88.3184 26.3363 89.4365 27.5629 89.4365 29.2397C89.4365 30.8991 88.3184 32.1073 86.8937 32.1073ZM89.2922 25.5248H89.22C88.7513 24.9658 87.8492 24.4609 86.7132 24.4609C84.3327 24.4609 82.1507 26.5527 82.1507 29.2397C82.1507 31.9088 84.3327 33.9828 86.7132 33.9828C87.8492 33.9828 88.7513 33.4777 89.22 32.901H89.2922V33.5861C89.2922 35.4079 88.3184 36.3816 86.7495 36.3816C85.4691 36.3816 84.6755 35.4616 84.3506 34.6863L82.5294 35.4437C83.0524 36.706 84.4411 38.2571 86.7495 38.2571C89.2021 38.2571 91.276 36.8141 91.276 33.2976V24.7495H89.2922V25.5248ZM92.7186 33.6942H94.8105V19.6998H92.7186V33.6942ZM97.8945 29.0775C97.8403 27.2379 99.3191 26.3004 100.383 26.3004C101.213 26.3004 101.916 26.7149 102.15 27.3105L97.8945 29.0775ZM104.387 27.4907C103.99 26.4263 102.781 24.4609 100.311 24.4609C97.8582 24.4609 95.8205 26.3905 95.8205 29.2218C95.8205 31.8909 97.8403 33.9828 100.545 33.9828C102.728 33.9828 103.99 32.6482 104.513 31.8729L102.89 30.7907C102.349 31.5843 101.609 32.1073 100.545 32.1073C99.4813 32.1073 98.724 31.6203 98.2369 30.6647L104.603 28.0316L104.387 27.4907ZM53.6685 25.9217V27.9414H58.5015C58.3573 29.0775 57.9786 29.907 57.4014 30.4842C56.6983 31.1877 55.5981 31.963 53.6685 31.963C50.6928 31.963 48.3666 29.5646 48.3666 26.589C48.3666 23.6134 50.6928 21.2146 53.6685 21.2146C55.2736 21.2146 56.4455 21.846 57.3113 22.6575L58.7359 21.233C57.5278 20.0785 55.9226 19.1949 53.6685 19.1949C49.5927 19.1949 46.1663 22.5132 46.1663 26.589C46.1663 30.6647 49.5927 33.9828 53.6685 33.9828C55.8688 33.9828 57.5278 33.2617 58.8261 31.9088C60.1606 30.5743 60.5756 28.6988 60.5756 27.1842C60.5756 26.7149 60.5396 26.2825 60.4671 25.9217H53.6685ZM66.0703 32.1073C64.6273 32.1073 63.3828 30.917 63.3828 29.2218C63.3828 27.5086 64.6273 26.3363 66.0703 26.3363C67.5127 26.3363 68.7572 27.5086 68.7572 29.2218C68.7572 30.917 67.5127 32.1073 66.0703 32.1073ZM66.0703 24.4609C63.437 24.4609 61.2909 26.4626 61.2909 29.2218C61.2909 31.963 63.437 33.9828 66.0703 33.9828C68.703 33.9828 70.8491 31.963 70.8491 29.2218C70.8491 26.4626 68.703 24.4609 66.0703 24.4609ZM76.4955 32.1073C75.053 32.1073 73.8085 30.917 73.8085 29.2218C73.8085 27.5086 75.053 26.3363 76.4955 26.3363C77.9381 26.3363 79.1825 27.5086 79.1825 29.2218C79.1825 30.917 77.9381 32.1073 76.4955 32.1073ZM76.4955 24.4609C73.8623 24.4609 71.7167 26.4626 71.7167 29.2218C71.7167 31.963 73.8623 33.9828 76.4955 33.9828C79.1283 33.9828 81.2745 31.963 81.2745 29.2218C81.2745 26.4626 79.1283 24.4609 76.4955 24.4609Z" fill="#282739"/>
<path d="M11.9886 36.3689L11.9054 36.2893C11.5797 35.9446 11.3874 35.4095 11.3874 34.7164V34.8795V10.1228C11.3874 10.1206 11.3874 10.1189 11.3874 10.1171C11.3874 10.1192 11.3874 10.121 11.3874 10.1233V10.2868C11.3874 9.53636 11.6116 8.97107 11.9873 8.63211L25.8565 22.5009L11.9886 36.3689ZM11.3874 10.1158C11.3874 10.0541 11.3891 9.9942 11.3922 9.93521C11.3891 9.99375 11.3874 10.0541 11.3874 10.1158ZM11.3922 9.93252C11.3922 9.93174 11.3922 9.93084 11.3925 9.92994C11.3922 9.93084 11.3922 9.93174 11.3922 9.93252ZM11.3925 9.92468C11.3925 9.92424 11.3925 9.92379 11.3925 9.92334C11.3925 9.92379 11.3925 9.92424 11.3925 9.92468Z" fill="url(#paint0_linear_327_3559)"/>
<path d="M30.4788 27.2893L30.5843 27.2294L36.0614 24.1174C36.5836 23.8205 36.9316 23.4606 37.1052 23.0798C36.9321 23.4606 36.5839 23.8209 36.0614 24.1178L30.5843 27.2299L30.4788 27.2893ZM30.4802 27.1253L25.8565 22.5008L30.4797 17.8771L36.0614 21.0482C36.7702 21.4509 37.1682 21.97 37.2346 22.5004C37.2346 22.5008 37.2346 22.5017 37.2346 22.5025C37.1682 23.0317 36.7702 23.5512 36.0614 23.9538L30.4802 27.1253Z" fill="url(#paint1_linear_327_3559)"/>
<path d="M12.9773 36.897C12.5899 36.897 12.2518 36.771 11.9882 36.5332L11.9887 36.5327C12.2523 36.7706 12.5908 36.897 12.9782 36.897C13.0118 36.897 13.0459 36.8961 13.0805 36.8944C13.0455 36.8961 13.0109 36.897 12.9773 36.897ZM12.9778 36.733C12.5903 36.7334 12.2523 36.607 11.9887 36.3692V36.3688L25.8565 22.5009L30.4802 27.1254L14.2318 36.3574C13.7823 36.6123 13.3563 36.733 12.9778 36.733ZM11.9847 36.5301C11.9602 36.5079 11.9362 36.4842 11.9125 36.4597L11.9847 36.5301Z" fill="url(#paint2_linear_327_3559)"/>
<path d="M25.8565 22.501L11.9873 8.63214C12.251 8.39471 12.5886 8.26878 12.9755 8.26878C13.3551 8.26878 13.7814 8.3899 14.2318 8.64523L30.4798 17.8773L25.8565 22.501ZM30.5843 17.7728L14.2318 8.4818C13.7814 8.22635 13.3551 8.10523 12.9755 8.10523C12.9737 8.10523 12.9725 8.10523 12.9707 8.10523C12.973 8.10523 12.9746 8.10523 12.9773 8.10523C13.356 8.10523 13.7818 8.2259 14.2318 8.48135L30.5843 17.7728Z" fill="url(#paint3_linear_327_3559)"/>
<path d="M13.0805 36.8945C13.4324 36.8744 13.8221 36.7533 14.2318 36.5211L30.4788 27.2895L14.2318 36.5211C13.8224 36.7537 13.4324 36.8744 13.0805 36.8945ZM11.9882 36.5333L11.9847 36.5303C11.9859 36.5312 11.9873 36.5324 11.9882 36.5333ZM11.9125 36.4599L11.9054 36.4529V36.4525C11.9081 36.4551 11.9102 36.4576 11.9125 36.4599Z" fill="white"/>
<path d="M30.4788 27.2893L30.5843 27.2294L30.4788 27.2893Z" fill="url(#paint4_linear_327_3559)"/>
<path d="M12.9782 36.897C12.5907 36.897 12.2522 36.7706 11.9886 36.5327L11.9882 36.5332C11.9873 36.5323 11.9859 36.531 11.9847 36.5301L11.9125 36.4597C11.9102 36.4575 11.9081 36.4549 11.9054 36.4523L11.9886 36.3692C12.2522 36.607 12.5903 36.7334 12.9777 36.733C13.3563 36.733 13.7822 36.6123 14.2318 36.3574L30.4801 27.1254L30.5842 27.2295L30.4788 27.2894L14.2318 36.521C13.8221 36.7531 13.4324 36.8742 13.0805 36.8944C13.0459 36.8961 13.0117 36.897 12.9782 36.897Z" fill="url(#paint5_linear_327_3559)"/>
<path d="M11.9054 36.4529C11.5797 36.1082 11.3874 35.573 11.3874 34.88V34.8796C11.3874 35.573 11.5797 36.1078 11.9054 36.4524V36.4529Z" fill="white"/>
<path d="M11.9054 36.4524C11.5797 36.1077 11.3874 35.573 11.3874 34.8795V34.7164C11.3874 35.4094 11.5797 35.9446 11.9054 36.2893L11.9886 36.3689L11.9054 36.4524Z" fill="url(#paint6_linear_327_3559)"/>
<path d="M11.9054 36.4524L11.9886 36.3689V36.3692L11.9054 36.4524Z" fill="url(#paint7_linear_327_3559)"/>
<path d="M37.1052 23.0798C37.1913 22.8909 37.2346 22.6968 37.2346 22.5026C37.2346 22.5022 37.2346 22.5018 37.2346 22.5018C37.2346 22.6963 37.1913 22.8904 37.1052 23.0798Z" fill="white"/>
<path d="M30.5842 27.2295L30.4801 27.1254L36.0614 23.9539C36.7702 23.5512 37.1681 23.0317 37.2346 22.5026C37.2346 22.6968 37.1913 22.8909 37.1052 23.0799C36.9316 23.4607 36.5836 23.8206 36.0614 24.1174L30.5842 27.2295Z" fill="url(#paint8_linear_327_3559)"/>
<path d="M37.2346 22.501V22.5005C37.2342 21.915 36.8428 21.3295 36.0614 20.8852L30.5843 17.7732H30.5838L30.5843 17.7728L36.0614 20.8848C36.8437 21.3291 37.2355 21.9154 37.2346 22.501Z" fill="#282739"/>
<path d="M37.2346 22.5005C37.1681 21.9701 36.7702 21.451 36.0614 21.0483L30.4797 17.8772L30.5838 17.7731H30.5842L36.0614 20.8852C36.8428 21.3295 37.2342 21.9149 37.2346 22.5005Z" fill="url(#paint9_linear_327_3559)"/>
<path d="M11.3874 10.1172C11.3874 10.1167 11.3874 10.1163 11.3874 10.1158C11.3874 10.1163 11.3874 10.1167 11.3874 10.1172ZM11.3922 9.93528C11.3922 9.93439 11.3922 9.9335 11.3922 9.9326C11.3922 9.9335 11.3922 9.93439 11.3922 9.93528ZM11.3925 9.93002C11.3925 9.92823 11.3925 9.92655 11.3925 9.92476C11.3925 9.92655 11.3925 9.92823 11.3925 9.93002ZM11.3925 9.92342C11.4573 8.77346 12.0826 8.10921 12.9672 8.10529C12.5837 8.10753 12.2497 8.23346 11.9882 8.46909V8.46865L11.985 8.47178C11.9575 8.49663 11.9313 8.52294 11.9054 8.55002C11.6116 8.86088 11.4262 9.32656 11.3925 9.92342Z" fill="#282739"/>
<path d="M11.3874 10.2869V10.1233C11.3874 10.1211 11.3874 10.1193 11.3874 10.1172C11.3874 10.1167 11.3874 10.1163 11.3874 10.1158C11.3874 10.0541 11.3891 9.99381 11.3922 9.93526C11.3922 9.93437 11.3922 9.93347 11.3922 9.93258C11.3922 9.93179 11.3922 9.9309 11.3925 9.93C11.3925 9.92821 11.3925 9.92653 11.3925 9.92474C11.3925 9.92429 11.3925 9.92384 11.3925 9.9234C11.4262 9.32653 11.6116 8.86086 11.9054 8.55L11.9873 8.63216C11.6116 8.97112 11.3874 9.53642 11.3874 10.2869ZM11.985 8.47175L11.9882 8.46862C11.9873 8.46996 11.9859 8.47086 11.985 8.47175Z" fill="url(#paint10_linear_327_3559)"/>
<path d="M30.4797 17.8772L14.2318 8.64514C13.7813 8.38981 13.3551 8.26869 12.9755 8.26869C12.5885 8.26869 12.2509 8.39462 11.9873 8.63205L11.9054 8.54988C11.9313 8.52279 11.9575 8.49649 11.985 8.47163C11.9859 8.47074 11.9873 8.46985 11.9882 8.46895C12.2496 8.23332 12.5837 8.10738 12.9672 8.10514C12.9681 8.10514 12.9693 8.10514 12.9707 8.10514C12.9724 8.10514 12.9737 8.10514 12.9755 8.10514C13.3551 8.10514 13.7813 8.22626 14.2318 8.48171L30.5842 17.7728L30.5838 17.7731L30.4797 17.8772Z" fill="url(#paint11_linear_327_3559)"/>
<path d="M48.914 11.2688C48.9271 12.3313 48.7142 13.1883 48.2769 13.839H51.6722V8.77285H48.914V11.2688ZM47.3661 16.0896H46.541V13.839H47.1978C47.7793 13.3379 48.0635 12.4818 48.0517 11.2688V7.94773H52.5358V13.839H53.2858V16.0896H52.4603V14.6642H47.3661V16.0896Z" fill="#282739"/>
<path d="M48.914 11.2689L48.8021 11.2702L48.803 11.3607C48.8025 12.366 48.5926 13.1689 48.1837 13.7766L48.0666 13.9511H51.7842V8.66103H48.8021V11.2698V11.2702L48.914 11.2689H49.026V8.88491H51.5603V13.7272H48.2769V13.8392L48.3696 13.9013C48.8099 13.2462 49.0269 12.3961 49.0269 11.3607L49.026 11.2676L48.914 11.2689H49.026H48.914ZM47.3661 16.0897V15.9778H46.6529V13.9511H47.1977H47.2393L47.2707 13.924C47.8759 13.4019 48.1641 12.5321 48.1641 11.3423L48.1637 11.268V11.2689V8.05979H52.4239V13.9511H53.1739V15.9778H52.5722V14.6643V14.5523H47.2542V16.0897H47.3661V15.9778V16.0897H47.478V14.7762H52.3483V16.0897V16.2017H53.2858H53.3978V13.7272H52.6478V7.83591H47.9398V11.2693V11.2698L47.9402 11.3423C47.9398 12.5007 47.659 13.2952 47.1246 13.7539L47.1977 13.8392V13.7272H46.541H46.4291V16.2017H47.3661H47.478V16.0897H47.3661Z" fill="#282739"/>
<path d="M55.7289 13.2339C56.2264 13.7372 56.8343 13.9886 57.5536 13.9886C58.2728 13.9886 58.8815 13.7372 59.3778 13.2339C59.8755 12.7307 60.1246 12.0873 60.1246 11.306C60.1246 10.5247 59.8755 9.88134 59.3778 9.37805C58.8815 8.87477 58.2728 8.62335 57.5536 8.62335C56.8343 8.62335 56.2264 8.87477 55.7289 9.37805C55.2325 9.88134 54.9833 10.5247 54.9833 11.306C54.9833 12.0873 55.2325 12.7307 55.7289 13.2339ZM60.0163 13.7962C59.3559 14.4753 58.5352 14.8142 57.5536 14.8142C56.5719 14.8142 55.7507 14.4753 55.0917 13.7962C54.4315 13.118 54.1022 12.2877 54.1022 11.306C54.1022 10.3243 54.4315 9.49391 55.0917 8.81577C55.7507 8.13663 56.5719 7.79734 57.5536 7.79734C58.5295 7.79734 59.3486 8.13842 60.0118 8.82014C60.6743 9.50186 61.0057 10.3304 61.0057 11.306C61.0057 12.2877 60.6756 13.118 60.0163 13.7962Z" fill="#282739"/>
<path d="M55.7288 13.2341L55.6492 13.3128C56.1647 13.8362 56.8079 14.1021 57.5536 14.1007C58.2986 14.1021 58.9432 13.8362 59.4573 13.3128C59.9764 12.7889 60.2374 12.1111 60.2365 11.3061C60.2374 10.5012 59.9764 9.82336 59.4573 9.29948C58.9432 8.77604 58.2986 8.51019 57.5536 8.51153C56.8079 8.51019 56.1647 8.77604 55.6492 9.29948C55.1315 9.82336 54.8705 10.5012 54.8714 11.3061C54.8705 12.1111 55.1315 12.7889 55.6492 13.3128L55.7288 13.2341L55.8089 13.1554C55.3339 12.6721 55.0965 12.0643 55.0952 11.3061C55.0965 10.5479 55.3339 9.94011 55.8089 9.45687H55.8084C56.2876 8.97373 56.86 8.73675 57.5536 8.73541C58.2466 8.73675 58.8203 8.97373 59.2981 9.45687L59.2999 9.45866L59.2981 9.45687C59.7743 9.94011 60.0114 10.5479 60.0127 11.3061C60.0114 12.0643 59.7743 12.6721 59.2981 13.1554C58.8203 13.6385 58.2466 13.8755 57.5536 13.8768C56.86 13.8755 56.2876 13.6385 55.8084 13.1554L55.7288 13.2341ZM60.0162 13.7963L59.9362 13.7185C59.2947 14.3762 58.5094 14.701 57.5536 14.7024C56.5973 14.701 55.8123 14.3762 55.1717 13.7185C54.5315 13.0587 54.2154 12.2629 54.2142 11.3061C54.2154 10.3494 54.5315 9.55358 55.1717 8.89369C55.8123 8.23604 56.5973 7.91075 57.5536 7.9094C58.5037 7.91075 59.2868 8.23739 59.9318 8.89851C60.5746 9.56142 60.8925 10.356 60.8937 11.3061C60.8925 12.2629 60.5755 13.0587 59.9362 13.7185L60.0162 13.7963L60.0966 13.8741C60.7753 13.1772 61.1185 12.3127 61.1176 11.3061C61.1185 10.3053 60.7744 9.44254 60.0922 8.74246C59.4101 8.0397 58.5558 7.68429 57.5536 7.68552C56.5461 7.68429 55.689 8.03802 55.0113 8.7381V8.73765C54.3312 9.43504 53.9894 10.2996 53.9903 11.3061C53.9894 12.3127 54.3312 13.1772 55.0113 13.8746V13.8741C55.689 14.5742 56.5461 14.9272 57.5536 14.9263C58.5606 14.9272 59.4176 14.5742 60.0966 13.8741L60.0162 13.7963Z" fill="#282739"/>
<path d="M65.3501 14.8142C64.3619 14.8142 63.5333 14.4797 62.8642 13.8102C62.1939 13.1413 61.8607 12.3064 61.8607 11.306C61.8607 10.3055 62.1939 9.47074 62.8642 8.80178C63.5333 8.13227 64.3619 7.79734 65.3501 7.79734C66.3623 7.79734 67.1853 8.16339 67.8171 8.89492L67.2159 9.47689C66.7603 8.90757 66.1371 8.62335 65.3501 8.62335C64.6176 8.62335 63.9997 8.8704 63.4969 9.36451C62.9932 9.85861 62.7417 10.5058 62.7417 11.306C62.7417 12.1061 62.9932 12.7538 63.4969 13.2475C63.9997 13.7416 64.6176 13.9886 65.3501 13.9886C66.1568 13.9886 66.8442 13.6637 67.4139 13.0135L68.0139 13.6134C67.707 13.9825 67.323 14.275 66.8595 14.4901C66.3973 14.7062 65.8932 14.8142 65.3501 14.8142Z" fill="#282739"/>
<path d="M65.35 14.8143V14.7024C64.3868 14.701 63.5931 14.3797 62.9433 13.7312C62.2939 13.0818 61.9735 12.2817 61.9726 11.3061C61.9735 10.3306 62.2939 9.53041 62.9433 8.88105C63.5931 8.23213 64.3868 7.91075 65.35 7.9094C66.3357 7.9112 67.1192 8.26011 67.7322 8.96802L67.8171 8.89504L67.7393 8.81455L67.138 9.39698L67.2158 9.47702L67.3033 9.40705C66.8284 8.81153 66.1634 8.50985 65.35 8.51153C64.5922 8.51064 63.9402 8.7709 63.4186 9.28459C62.8917 9.80019 62.6284 10.4831 62.6298 11.3061C62.6284 12.1291 62.8917 12.8129 63.4186 13.3276C63.9402 13.8413 64.5922 14.1016 65.35 14.1007C66.1873 14.1021 66.9128 13.7583 67.4978 13.0875L67.4139 13.0137L67.3347 13.0928L67.9347 13.6927L68.0139 13.6135L67.9277 13.5423C67.6313 13.8982 67.2622 14.1799 66.8122 14.3888C66.3649 14.5978 65.8787 14.7019 65.35 14.7024V14.8143V14.9263C65.9079 14.9263 66.4292 14.8152 66.9067 14.5918C67.3842 14.3705 67.7821 14.0675 68.0999 13.6853L68.1651 13.6071L67.4931 12.9345L67.4083 12.8497L67.3296 12.9398C66.7759 13.5699 66.1262 13.8755 65.35 13.8768C64.6426 13.8755 64.0597 13.642 63.5755 13.1676H63.5752C63.0942 12.6953 62.8545 12.0835 62.8536 11.3061C62.8545 10.5287 63.0942 9.91784 63.5752 9.44466H63.5755C64.0597 8.97026 64.6426 8.73675 65.35 8.73541C66.1104 8.7372 66.6915 9.00396 67.1284 9.54698L67.2053 9.64325L67.8949 8.97552L67.971 8.90198L67.9019 8.82205C67.2517 8.06645 66.3889 7.68429 65.35 7.68552C64.3364 7.68463 63.4728 8.03321 62.785 8.72276C62.0937 9.41097 61.7473 10.2812 61.7487 11.3061C61.7473 12.331 62.0937 13.2013 62.785 13.8899C63.4728 14.579 64.3364 14.9272 65.35 14.9263V14.8143Z" fill="#282739"/>
<path d="M71.5045 14.6643H70.641V8.773H68.7651V7.94789H73.3804V8.773H71.5045V14.6643Z" fill="#282739"/>
<path d="M71.5045 14.6642V14.5522H70.7529V8.66094H68.877V8.05971H73.2684V8.66094H71.3925V14.6642H71.5045V14.5522V14.6642H71.6164V8.88482H73.4923V7.94776V7.83582H68.6531V8.77288V8.88482H70.529V14.7761H71.5045H71.6164V14.6642H71.5045Z" fill="#282739"/>
<path d="M75.2549 12.0372H77.4868L76.3892 9.00785H76.3521L75.2549 12.0372ZM73.3507 14.6643L75.8838 7.94789H76.8585L79.3911 14.6643H78.4348L77.7871 12.8439H74.9642L74.3075 14.6643H73.3507Z" fill="#282739"/>
<path d="M75.255 12.0371V12.149H77.6464L76.4675 8.89579H76.3521H76.2734L75.0954 12.149H75.255V12.0371L75.3604 12.0756L76.4575 9.04579L76.3521 9.00773V9.11967H76.3892V9.00773L76.2839 9.04579L77.3272 11.9251H75.255V12.0371L75.3604 12.0756L75.255 12.0371ZM73.3507 14.6642L73.4556 14.7036L75.9612 8.05971H76.7806L79.2293 14.5522H78.5135L77.8663 12.7319H74.8856L74.2287 14.5522H73.3507V14.6642L73.4556 14.7036L73.3507 14.6642V14.7761H74.3075H74.3862L75.0429 12.9558H77.7085L78.3557 14.7761H79.3911H79.5529L76.9359 7.83582H75.8838H75.8064L73.1889 14.7761H73.3507V14.6642Z" fill="#282739"/>
<path d="M80.3671 14.6643V7.94789H85.2264V14.6643H84.3629V8.773H81.2298V14.6643H80.3671Z" fill="#282739"/>
<path d="M80.367 14.6642H80.479V8.05971H85.1144V14.5522H84.4748V8.66094H81.1178V14.5522H80.367V14.6642H80.479H80.367V14.7761H81.2297H81.3417V8.88482H84.2509V14.7761H85.2263H85.3383V7.83582H80.2551V14.7761H80.367V14.6642Z" fill="#282739"/>
<path d="M86.7656 14.6643V7.94789H87.6284V10.8273H90.9866V7.94789H91.8497V14.6643H90.9866V11.6341H87.6284V14.6643H86.7656Z" fill="#282739"/>
<path d="M86.7655 14.6642H86.8775V8.05971H87.5164L87.516 10.9391H91.0985V8.05971H91.7377V14.5522H91.0981L91.0985 11.522H87.516V14.5522H86.7655V14.6642H86.8775H86.7655V14.7761H87.6284H87.7403V11.7459H90.8742V14.7761H91.8496H91.9616V7.83582H90.9866H90.8742V10.7153H87.7398L87.7403 7.83582H86.7655H86.6536V14.7761H86.7655V14.6642Z" fill="#282739"/>
<path d="M94.5926 13.2339C95.0903 13.7372 95.6976 13.9886 96.4169 13.9886C97.1367 13.9886 97.7453 13.7372 98.2416 13.2339C98.7388 12.7307 98.9885 12.0873 98.9885 11.306C98.9885 10.5247 98.7388 9.88134 98.2416 9.37805C97.7453 8.87477 97.1367 8.62335 96.4169 8.62335C95.6976 8.62335 95.0903 8.87477 94.5926 9.37805C94.0964 9.88134 93.8471 10.5247 93.8471 11.306C93.8471 12.0873 94.0964 12.7307 94.5926 13.2339ZM98.88 13.7962C98.2198 14.4753 97.3991 14.8142 96.4169 14.8142C95.4357 14.8142 94.6145 14.4753 93.9555 13.7962C93.2953 13.118 92.966 12.2877 92.966 11.306C92.966 10.3243 93.2953 9.49391 93.9555 8.81577C94.6145 8.13663 95.4357 7.79734 96.4169 7.79734C97.3933 7.79734 98.2119 8.13842 98.8757 8.82014C99.5381 9.50186 99.8696 10.3304 99.8696 11.306C99.8696 12.2877 99.5395 13.118 98.88 13.7962Z" fill="#282739"/>
<path d="M94.5926 13.2341L94.513 13.3128C95.0286 13.8362 95.6719 14.1021 96.4169 14.1007C97.1625 14.1021 97.8066 13.8362 98.3213 13.3128C98.8403 12.7889 99.1014 12.1111 99.1005 11.3061C99.1014 10.5012 98.8403 9.82336 98.3213 9.29948C97.8066 8.77604 97.1625 8.51019 96.4169 8.51153C95.6719 8.51019 95.0286 8.77604 94.513 9.29948C93.9953 9.82336 93.7343 10.5012 93.7352 11.3061C93.7343 12.1111 93.9953 12.7889 94.513 13.3128L94.5926 13.2341L94.6722 13.1554C94.1974 12.6721 93.96 12.0643 93.9591 11.3061C93.96 10.5479 94.1974 9.94011 94.6722 9.45687C95.1516 8.97373 95.7239 8.73675 96.4169 8.73541C97.1105 8.73675 97.6842 8.97373 98.1621 9.45687L98.1651 9.46045L98.1621 9.45687C98.6378 9.94011 98.8753 10.5479 98.8766 11.3061C98.8753 12.0643 98.6378 12.6721 98.1621 13.1554C97.6842 13.6385 97.1105 13.8755 96.4169 13.8768C95.7239 13.8755 95.1516 13.6385 94.6722 13.1554L94.5926 13.2341ZM98.8801 13.7963L98.7996 13.7185C98.1582 14.3762 97.3732 14.701 96.4169 14.7024C95.4611 14.701 94.6761 14.3762 94.0356 13.7185L94.0325 13.7151L94.0356 13.7185C93.395 13.0587 93.0789 12.2629 93.078 11.3061C93.0789 10.3494 93.395 9.55358 94.0356 8.89369C94.6761 8.23604 95.4611 7.91075 96.4169 7.9094C97.3672 7.91075 98.1503 8.23739 98.7957 8.89851C99.4384 9.56142 99.7563 10.356 99.7577 11.3061C99.7563 12.2629 99.4393 13.0587 98.7996 13.7185L98.8801 13.7963L98.9606 13.8741C99.6391 13.1772 99.9825 12.3127 99.9816 11.3061C99.9825 10.3053 99.6379 9.44254 98.9562 8.74246C98.274 8.0397 97.4191 7.68429 96.4169 7.68552C95.4099 7.68429 94.5529 8.03802 93.8751 8.7381V8.73765C93.1952 9.43504 92.8532 10.2996 92.8541 11.3061C92.8532 12.3127 93.1952 13.1772 93.8751 13.8746V13.8741C94.5529 14.5742 95.4099 14.9272 96.4169 14.9263C97.4244 14.9272 98.2814 14.5742 98.9606 13.8741L98.8801 13.7963Z" fill="#282739"/>
<path d="M103.398 14.6643V7.94789H104.26V10.8273H107.618V7.94789H108.483V14.6643H107.618V11.6341H104.26V14.6643H103.398Z" fill="#282739"/>
<path d="M103.398 14.6642H103.51V8.05971H104.148V10.9391H107.73V8.05971H108.371V14.5522H107.73V11.522H104.148V14.5522H103.398V14.6642H103.51H103.398V14.7761H104.26H104.372V11.7459H107.506V14.7761H108.483H108.594V7.83582H107.618H107.506V10.7153H104.372V7.83582H103.398H103.286V14.7761H103.398V14.6642Z" fill="#282739"/>
<path d="M111.362 12.0372H113.594L112.497 9.00785H112.46L111.362 12.0372ZM109.458 14.6643L111.991 7.94789H112.966L115.499 14.6643H114.542L113.895 12.8439H111.071L110.415 14.6643H109.458Z" fill="#282739"/>
<path d="M111.362 12.0371V12.149H113.754L112.575 8.89579H112.46H112.381L111.203 12.149H111.362V12.0371L111.467 12.0756L112.565 9.04579L112.46 9.00773V9.11967H112.497V9.00773L112.391 9.04579L113.435 11.9251H111.362V12.0371L111.467 12.0756L111.362 12.0371ZM109.457 14.6642L109.563 14.7036L112.068 8.05971H112.888L115.337 14.5522H114.621L113.973 12.7319H110.992L110.335 14.5522H109.457V14.6642L109.563 14.7036L109.457 14.6642V14.7761H110.415H110.493L111.15 12.9558H113.815L114.462 14.7761H115.499H115.66L113.043 7.83582H111.991H111.913L109.295 14.7761H109.457V14.6642Z" fill="#282739"/>
</g>
<defs>
<linearGradient id="paint0_linear_327_3559" x1="24.6267" y1="9.86166" x2="5.8403" y2="28.648" gradientUnits="userSpaceOnUse">
<stop stop-color="#00A0FF"/>
<stop offset="0.00657445" stop-color="#00A1FF"/>
<stop offset="0.2601" stop-color="#00BEFF"/>
<stop offset="0.5122" stop-color="#00D2FF"/>
<stop offset="0.7604" stop-color="#00DFFF"/>
<stop offset="1" stop-color="#00E3FF"/>
</linearGradient>
<linearGradient id="paint1_linear_327_3559" x1="38.0983" y1="22.5015" x2="11.0121" y2="22.5015" gradientUnits="userSpaceOnUse">
<stop stop-color="#FFE000"/>
<stop offset="0.4087" stop-color="#FFBD00"/>
<stop offset="0.7754" stop-color="#FFA500"/>
<stop offset="1" stop-color="#FF9C00"/>
</linearGradient>
<linearGradient id="paint2_linear_327_3559" x1="28.0154" y1="25.0703" x2="2.53966" y2="50.546" gradientUnits="userSpaceOnUse">
<stop stop-color="#FF3A44"/>
<stop offset="1" stop-color="#C31162"/>
</linearGradient>
<linearGradient id="paint3_linear_327_3559" x1="8.39259" y1="0.309262" x2="19.7685" y2="11.6852" gradientUnits="userSpaceOnUse">
<stop stop-color="#32A071"/>
<stop offset="0.0685" stop-color="#2DA771"/>
<stop offset="0.4762" stop-color="#15CF74"/>
<stop offset="0.8009" stop-color="#06E775"/>
<stop offset="1" stop-color="#00F076"/>
</linearGradient>
<linearGradient id="paint4_linear_327_3559" x1="38.0984" y1="22.5016" x2="11.0117" y2="22.5016" gradientUnits="userSpaceOnUse">
<stop stop-color="#CCB300"/>
<stop offset="0.4087" stop-color="#CC9700"/>
<stop offset="0.7754" stop-color="#CC8400"/>
<stop offset="1" stop-color="#CC7D00"/>
</linearGradient>
<linearGradient id="paint5_linear_327_3559" x1="28.0153" y1="25.0703" x2="2.5396" y2="50.546" gradientUnits="userSpaceOnUse">
<stop stop-color="#CC2E36"/>
<stop offset="1" stop-color="#9C0E4E"/>
</linearGradient>
<linearGradient id="paint6_linear_327_3559" x1="24.6267" y1="9.86165" x2="5.84032" y2="28.6481" gradientUnits="userSpaceOnUse">
<stop stop-color="#008DE0"/>
<stop offset="0.00657445" stop-color="#008DE0"/>
<stop offset="0.2601" stop-color="#00A7E0"/>
<stop offset="0.5122" stop-color="#00B8E0"/>
<stop offset="0.7604" stop-color="#00C4E0"/>
<stop offset="1" stop-color="#00C7E0"/>
</linearGradient>
<linearGradient id="paint7_linear_327_3559" x1="28.0158" y1="25.0702" x2="2.53995" y2="50.5467" gradientUnits="userSpaceOnUse">
<stop stop-color="#E0333C"/>
<stop offset="1" stop-color="#AB0F56"/>
</linearGradient>
<linearGradient id="paint8_linear_327_3559" x1="38.0982" y1="22.5016" x2="11.012" y2="22.5016" gradientUnits="userSpaceOnUse">
<stop stop-color="#E0C500"/>
<stop offset="0.4087" stop-color="#E0A600"/>
<stop offset="0.7754" stop-color="#E09100"/>
<stop offset="1" stop-color="#E08900"/>
</linearGradient>
<linearGradient id="paint9_linear_327_3559" x1="38.0982" y1="22.5016" x2="11.0121" y2="22.5016" gradientUnits="userSpaceOnUse">
<stop stop-color="#FFE840"/>
<stop offset="0.4087" stop-color="#FFCE40"/>
<stop offset="0.7754" stop-color="#FFBC40"/>
<stop offset="1" stop-color="#FFB540"/>
</linearGradient>
<linearGradient id="paint10_linear_327_3559" x1="24.6267" y1="9.86172" x2="5.8403" y2="28.6481" gradientUnits="userSpaceOnUse">
<stop stop-color="#40B8FF"/>
<stop offset="0.00657445" stop-color="#40B9FF"/>
<stop offset="0.2601" stop-color="#40CEFF"/>
<stop offset="0.5122" stop-color="#40DDFF"/>
<stop offset="0.7604" stop-color="#40E7FF"/>
<stop offset="1" stop-color="#40EAFF"/>
</linearGradient>
<linearGradient id="paint11_linear_327_3559" x1="8.39252" y1="0.309172" x2="19.7685" y2="11.6851" gradientUnits="userSpaceOnUse">
<stop stop-color="#65B895"/>
<stop offset="0.0685" stop-color="#62BD95"/>
<stop offset="0.4762" stop-color="#50DB97"/>
<stop offset="0.8009" stop-color="#44ED98"/>
<stop offset="1" stop-color="#40F498"/>
</linearGradient>
<clipPath id="clip0_327_3559">
<rect width="151.455" height="45" fill="white"/>
</clipPath>
</defs>
</svg>
