<svg width="24" height="16" viewBox="0 0 24 16" fill="none" xmlns="http://www.w3.org/2000/svg">
<path fill-rule="evenodd" clip-rule="evenodd" d="M7.54744 12.0491C7.69997 11.9699 7.95925 11.8659 8.23391 11.8659C8.86434 11.8659 9.2051 12.2916 9.2051 13.0838C9.2051 14.0091 8.74761 14.4596 8.01024 14.4596C7.74062 14.4596 7.32369 14.3755 7.01854 14.2169V10.7622L7.54744 10.6384V12.0491ZM7.54245 14.0338C7.70505 14.1031 7.88312 14.113 8.01029 14.113C8.38657 14.113 8.6713 13.8853 8.6713 13.0838C8.6713 12.455 8.43738 12.252 8.09671 12.252C7.89319 12.252 7.74588 12.3065 7.54245 12.4154V14.0338ZM2.12647 11.9302H2.16208L2.85349 14.4002H3.40262L4.22651 10.8907H3.6315L3.11286 13.5092H3.07742L2.37046 10.8907H1.91791L1.2569 13.5092H1.22128L0.651735 10.8907H0.0822754L0.906067 14.4002H1.45511L2.12647 11.9302ZM6.47981 14.2317V13.8556C6.20012 14.0189 5.94597 14.113 5.6714 14.113C5.14763 14.113 4.89851 13.8505 4.89851 13.2566H6.55608V13.0736C6.55608 12.2669 6.16451 11.8659 5.52904 11.8659C4.76631 11.8659 4.37474 12.4104 4.37474 13.1626C4.37474 13.9448 4.72557 14.4596 5.57976 14.4596C5.94597 14.4596 6.25102 14.3606 6.47981 14.2317ZM6.07299 12.9251H4.9088C4.96456 12.4303 5.20342 12.1976 5.51379 12.1976C5.78835 12.1976 6.04781 12.4053 6.07299 12.9251ZM11.5442 13.6577H11.5187L10.3797 10.8907H9.76444V14.4002H10.2221V11.9155H10.2678L11.3053 14.4002H11.6306L12.668 11.856H12.7138V14.4002H13.263V10.8907H12.6323L11.5442 13.6577ZM13.8224 13.1626C13.8224 12.2964 14.3106 11.8659 14.9817 11.8659C15.653 11.8659 16.1413 12.2964 16.1413 13.1626C16.1413 14.0091 15.6785 14.4596 14.9817 14.4596C14.285 14.4596 13.8224 14.0091 13.8224 13.1626ZM15.6073 13.1626C15.6073 12.4945 15.3275 12.2125 14.9818 12.2125C14.6461 12.2125 14.3563 12.4945 14.3563 13.1626C14.3563 13.841 14.6209 14.1129 14.9818 14.1129C15.3428 14.1129 15.6073 13.841 15.6073 13.1626ZM17.9205 11.8659C17.3361 11.8659 16.8528 12.0985 16.6241 12.2322V14.4002H17.153V12.4401C17.3105 12.3511 17.5699 12.2618 17.7734 12.2618C18.0327 12.2618 18.2308 12.3312 18.2308 12.7222V14.4002H18.7596V12.6082C18.7596 12.0985 18.531 11.8659 17.9205 11.8659ZM21.3376 13.8556V14.2317C21.1089 14.3606 20.8039 14.4596 20.4376 14.4596C19.5835 14.4596 19.2326 13.9448 19.2326 13.1626C19.2326 12.4104 19.6243 11.8659 20.3869 11.8659C21.0227 11.8659 21.4143 12.2669 21.4143 13.0736V13.2566H19.7566C19.7566 13.8505 20.0057 14.113 20.5294 14.113C20.8039 14.113 21.0582 14.0189 21.3376 13.8556ZM19.7667 12.9251H20.931C20.9058 12.4053 20.6462 12.1976 20.3716 12.1976C20.0614 12.1976 19.8227 12.4303 19.7667 12.9251ZM23.9363 11.95H23.3922L22.8124 13.7714H22.782L22.1312 11.95H21.5718L22.5481 14.4248C22.4259 14.791 22.2126 15.0585 21.8668 15.0585V15.4642C22.4513 15.4642 22.7615 15.108 23.0159 14.4248L23.9363 11.95Z" fill="#0068A3"/>
<path fill-rule="evenodd" clip-rule="evenodd" d="M11.6684 0.516113C12.3682 0.516113 13.0309 0.674735 13.6211 0.956349C13.7138 0.999155 13.8063 1.04625 13.899 1.09825L13.4887 1.45567L12.8723 0.835282L11.832 1.73851L11.214 1.08205L9.27607 2.78242L10.5185 4.1152L10.0302 4.53321L11.254 5.868L10.7686 6.28504L12.5173 8.17966L13.5553 7.24946L14.4527 8.24627C14.2742 8.38135 14.0798 8.50845 13.8656 8.62593C13.2166 8.98616 12.4665 9.1924 11.6684 9.1924C9.21374 9.1924 7.21173 7.24342 7.21173 4.85439C7.21173 2.46483 9.21374 0.516113 11.6684 0.516113ZM10.8562 4.58016L11.916 3.65119L12.8702 4.68301L11.8106 5.61163L10.8562 4.58016ZM12.6697 5.43391L11.6098 6.36262L12.5643 7.39444L13.6241 6.46547L12.6697 5.43391ZM10.0979 2.81851L11.1577 1.8898L12.1117 2.92136L11.0519 3.85007L10.0979 2.81851ZM12.8375 1.62212L12.0427 2.31858L12.7583 3.09251L13.5531 2.39579L12.8375 1.62212ZM13.4549 5.50931L14.25 4.81258L14.9656 5.58643L14.1708 6.28298L13.4549 5.50931ZM14.9488 6.37522L14.1541 7.07203L14.8697 7.84544L15.6646 7.14889L14.9488 6.37522ZM14.4742 3.49036L15.0041 3.02597L15.4811 3.54175L14.9515 4.00606L14.4742 3.49036ZM14.3271 1.49352L13.7972 1.95783L14.2742 2.47361L14.8042 2.0093L14.3271 1.49352ZM15.1517 5.02284L15.6816 4.55845L16.1587 5.07414L15.6288 5.53854L15.1517 5.02284ZM13.57 3.17768L12.7753 3.8745L13.4911 4.64791L14.2856 3.95135L13.57 3.17768Z" fill="#0068A3"/>
</svg>
