<svg width="9" height="8" viewBox="0 0 9 8" fill="none" xmlns="http://www.w3.org/2000/svg">
<path d="M8.80744 5.36609C8.80744 5.36609 7.99127 4.96633 7.48023 4.69983C6.90191 4.40201 6.22232 4.95968 5.9025 5.27683C5.40477 5.08563 4.95016 4.79705 4.56529 4.42799C4.19617 4.04319 3.90759 3.58858 3.71645 3.09078C4.03361 2.77031 4.58994 2.09137 4.29346 1.51306C4.03027 1.00136 3.62719 0.185189 3.62719 0.185189C3.57063 0.0729425 3.45573 0.00207805 3.33003 0.00195312H2.66376C1.69346 0.169541 0.987974 1.01617 0.998093 2.00077C0.998093 3.04681 2.25001 5.0563 3.0942 5.90112C3.93839 6.74593 5.94785 7.99722 6.99455 7.99722C7.97915 8.00734 8.82577 7.30182 8.99336 6.33155V5.66529C8.99346 5.53824 8.92137 5.42221 8.80744 5.36609Z" fill="#F7F7F7"/>
</svg>
