<svg width="20" height="16" viewBox="0 0 20 16" fill="none" xmlns="http://www.w3.org/2000/svg">
<path d="M0.435062 12.8952C0.843395 14.3435 2.09256 14.6085 2.1759 14.6593C4.23173 15.2193 15.7551 15.221 17.8417 14.6593C19.2709 14.246 19.5334 12.9785 19.5826 12.8952C20.1267 10.0002 20.1626 6.226 19.5576 2.941L19.5826 3.10433C19.1742 1.656 17.9251 1.391 17.8417 1.34016C15.8134 0.78933 4.26006 0.768497 2.1759 1.34016C0.746729 1.75433 0.484229 3.021 0.435062 3.10433C-0.147438 6.14683 -0.176605 9.63766 0.435062 12.8952ZM8.00673 11.0427V4.96516L13.2284 8.0085L8.00673 11.0427Z" fill="#E53935"/>
</svg>
