<svg width="117" height="121" viewBox="0 0 117 121" fill="none" xmlns="http://www.w3.org/2000/svg">
<path d="M1.144 8.362H4.474V19H6.598V8.362H9.928V6.4H1.144V8.362ZM17.3769 12.52L17.4669 10.09L10.0329 17.2L9.94291 19.63L17.3769 12.52ZM11.8509 10.72H9.94291V19.63L11.8509 17.416V10.72ZM17.4669 10.09L15.5589 12.286V19H17.4669V10.09ZM27.3571 10.72H20.0311V19H21.9391V12.466H25.4491V19H27.3571V10.72Z" fill="#282739"/>
<rect x="1" y="43" width="16" height="16" rx="2" fill="white"/>
<path d="M4.91308 50.0352H4.91326C4.99256 50.0353 5.07081 50.0533 5.14213 50.088C5.21341 50.1226 5.27591 50.173 5.32497 50.2352L4.91308 50.0352ZM4.91308 50.0352H4.09394C3.89031 50.0352 3.7766 50.2698 3.90232 50.4292L3.90237 50.4293L7.11214 54.4957L7.11218 54.4957C7.32247 54.7619 7.72568 54.7611 7.93667 54.4962L7.93708 54.4957L13.6597 47.244C13.6598 47.2438 13.66 47.2436 13.6602 47.2434C13.7884 47.0829 13.6699 46.85 13.4689 46.85H12.6498C12.4894 46.85 12.3367 46.9235 12.2376 47.0504C12.2375 47.0506 12.2374 47.0507 12.2373 47.0508L7.52403 53.0216M4.91308 50.0352L7.52403 53.0216M7.52403 53.0216L5.32506 50.2353L7.52403 53.0216Z" fill="#6F73EE" stroke="#6F73EE" stroke-width="0.3"/>
<path d="M2 44H16V42H2V44ZM16 44V58H18V44H16ZM16 58H2V60H16V58ZM2 58V44H0V58H2ZM2 58H2H0C0 59.1046 0.895431 60 2 60V58ZM16 58H16V60C17.1046 60 18 59.1046 18 58H16ZM16 44H16H18C18 42.8954 17.1046 42 16 42V44ZM2 42C0.895431 42 0 42.8954 0 44H2H2V42Z" fill="#6F73EE"/>
<path d="M30.058 50.82H31.64C32.228 50.82 32.7367 50.736 33.166 50.568C33.6047 50.4 33.9453 50.1527 34.188 49.826C34.4307 49.4993 34.552 49.1073 34.552 48.65C34.552 48.09 34.4307 47.6327 34.188 47.278C33.9453 46.914 33.6047 46.6433 33.166 46.466C32.7367 46.2887 32.228 46.2 31.64 46.2H29.12V56H31.78C32.4147 56 32.9793 55.8973 33.474 55.692C33.978 55.4773 34.3747 55.16 34.664 54.74C34.9627 54.3107 35.112 53.774 35.112 53.13C35.112 52.682 35.028 52.2947 34.86 51.968C34.692 51.6413 34.454 51.3753 34.146 51.17C33.8473 50.9553 33.4973 50.7967 33.096 50.694C32.6947 50.5913 32.256 50.54 31.78 50.54H30.058V51.198H31.78C32.0973 51.198 32.3867 51.24 32.648 51.324C32.9093 51.3987 33.1333 51.5153 33.32 51.674C33.516 51.8327 33.6653 52.0287 33.768 52.262C33.8707 52.4953 33.922 52.7613 33.922 53.06C33.922 53.4613 33.8287 53.802 33.642 54.082C33.4647 54.362 33.2127 54.5767 32.886 54.726C32.5687 54.8753 32.2 54.95 31.78 54.95H30.31V47.25H31.64C32.1347 47.25 32.5453 47.3807 32.872 47.642C33.1987 47.894 33.362 48.2533 33.362 48.72C33.362 49.028 33.2873 49.2893 33.138 49.504C32.9887 49.7187 32.7833 49.882 32.522 49.994C32.2607 50.106 31.9667 50.162 31.64 50.162H30.058V50.82ZM37.5146 53.13H42.2746V52.08H37.5146V53.13ZM41.5466 49.56V56H42.6666V49.56H41.5466ZM36.8566 49.56V56H37.9766V49.56H36.8566ZM44.9267 53.06H50.4287C50.438 53.004 50.4427 52.948 50.4427 52.892C50.4427 52.836 50.4427 52.78 50.4427 52.724C50.4427 52.0427 50.3167 51.4593 50.0647 50.974C49.8127 50.4793 49.458 50.0967 49.0007 49.826C48.5433 49.5553 48.0113 49.42 47.4047 49.42C46.854 49.42 46.3547 49.532 45.9067 49.756C45.468 49.98 45.1087 50.2927 44.8287 50.694C44.5487 51.0953 44.362 51.562 44.2687 52.094C44.25 52.206 44.236 52.318 44.2267 52.43C44.2173 52.542 44.2127 52.6587 44.2127 52.78C44.2127 53.424 44.3433 54.0027 44.6047 54.516C44.8753 55.02 45.2393 55.4167 45.6967 55.706C46.1633 55.9953 46.686 56.14 47.2647 56.14C47.8247 56.14 48.2913 56.0747 48.6647 55.944C49.038 55.804 49.3553 55.6127 49.6167 55.37C49.878 55.118 50.116 54.8287 50.3307 54.502L49.4207 53.928C49.2807 54.1613 49.1127 54.3667 48.9167 54.544C48.7207 54.712 48.4967 54.8473 48.2447 54.95C48.002 55.0433 47.722 55.09 47.4047 55.09C46.9847 55.09 46.6207 55.0013 46.3127 54.824C46.0047 54.6467 45.7667 54.3853 45.5987 54.04C45.4307 53.6947 45.3467 53.2747 45.3467 52.78L45.3747 52.36C45.3747 51.9587 45.4633 51.6133 45.6407 51.324C45.8273 51.0253 46.0747 50.7967 46.3827 50.638C46.6907 50.4793 47.0313 50.4 47.4047 50.4C47.778 50.4 48.0907 50.4747 48.3427 50.624C48.604 50.764 48.8047 50.9647 48.9447 51.226C49.094 51.478 49.1873 51.772 49.2247 52.108H44.9267V53.06ZM54.7805 51.492L56.6705 55.58H57.9305L54.7805 49.07L51.6305 55.58H52.8905L54.7805 51.492ZM57.6505 56V57.26H58.7705V54.95H50.7905V57.26H51.9805V56H57.6505ZM59.8943 52.78C59.8943 53.424 60.039 54.0027 60.3283 54.516C60.627 55.02 61.0283 55.4167 61.5323 55.706C62.0363 55.9953 62.601 56.14 63.2263 56.14C63.861 56.14 64.4256 55.9953 64.9203 55.706C65.4243 55.4167 65.821 55.02 66.1103 54.516C66.409 54.0027 66.5583 53.424 66.5583 52.78C66.5583 52.1267 66.409 51.548 66.1103 51.044C65.821 50.54 65.4243 50.1433 64.9203 49.854C64.4256 49.5647 63.861 49.42 63.2263 49.42C62.601 49.42 62.0363 49.5647 61.5323 49.854C61.0283 50.1433 60.627 50.54 60.3283 51.044C60.039 51.548 59.8943 52.1267 59.8943 52.78ZM61.0283 52.78C61.0283 52.332 61.1216 51.9353 61.3083 51.59C61.5043 51.2353 61.7656 50.96 62.0923 50.764C62.4283 50.568 62.8063 50.47 63.2263 50.47C63.6463 50.47 64.0196 50.568 64.3463 50.764C64.6823 50.96 64.9436 51.2353 65.1303 51.59C65.3263 51.9353 65.4243 52.332 65.4243 52.78C65.4243 53.228 65.3263 53.6247 65.1303 53.97C64.9436 54.3153 64.6823 54.5907 64.3463 54.796C64.0196 54.992 63.6463 55.09 63.2263 55.09C62.8063 55.09 62.4283 54.992 62.0923 54.796C61.7656 54.5907 61.5043 54.3153 61.3083 53.97C61.1216 53.6247 61.0283 53.228 61.0283 52.78ZM69.1469 59.08V49.56H68.0269V59.08H69.1469ZM74.5369 52.78C74.5369 52.08 74.3922 51.4827 74.1029 50.988C73.8135 50.484 73.4262 50.0967 72.9409 49.826C72.4649 49.5553 71.9329 49.42 71.3449 49.42C70.8129 49.42 70.3415 49.5553 69.9309 49.826C69.5295 50.0967 69.2122 50.484 68.9789 50.988C68.7549 51.4827 68.6429 52.08 68.6429 52.78C68.6429 53.4707 68.7549 54.068 68.9789 54.572C69.2122 55.076 69.5295 55.4633 69.9309 55.734C70.3415 56.0047 70.8129 56.14 71.3449 56.14C71.9329 56.14 72.4649 56.0047 72.9409 55.734C73.4262 55.4633 73.8135 55.076 74.1029 54.572C74.3922 54.068 74.5369 53.4707 74.5369 52.78ZM73.4029 52.78C73.4029 53.2747 73.3002 53.6947 73.0949 54.04C72.8989 54.3853 72.6329 54.6467 72.2969 54.824C71.9702 55.0013 71.6062 55.09 71.2049 55.09C70.8782 55.09 70.5562 55.0013 70.2389 54.824C69.9215 54.6467 69.6602 54.3853 69.4549 54.04C69.2495 53.6947 69.1469 53.2747 69.1469 52.78C69.1469 52.2853 69.2495 51.8653 69.4549 51.52C69.6602 51.1747 69.9215 50.9133 70.2389 50.736C70.5562 50.5587 70.8782 50.47 71.2049 50.47C71.6062 50.47 71.9702 50.5587 72.2969 50.736C72.6329 50.9133 72.8989 51.1747 73.0949 51.52C73.3002 51.8653 73.4029 52.2853 73.4029 52.78ZM75.5213 52.78C75.5213 53.424 75.6659 54.0027 75.9552 54.516C76.2539 55.02 76.6553 55.4167 77.1593 55.706C77.6633 55.9953 78.2279 56.14 78.8533 56.14C79.4879 56.14 80.0526 55.9953 80.5473 55.706C81.0513 55.4167 81.4479 55.02 81.7373 54.516C82.0359 54.0027 82.1853 53.424 82.1853 52.78C82.1853 52.1267 82.0359 51.548 81.7373 51.044C81.4479 50.54 81.0513 50.1433 80.5473 49.854C80.0526 49.5647 79.4879 49.42 78.8533 49.42C78.2279 49.42 77.6633 49.5647 77.1593 49.854C76.6553 50.1433 76.2539 50.54 75.9552 51.044C75.6659 51.548 75.5213 52.1267 75.5213 52.78ZM76.6553 52.78C76.6553 52.332 76.7486 51.9353 76.9353 51.59C77.1313 51.2353 77.3926 50.96 77.7193 50.764C78.0553 50.568 78.4333 50.47 78.8533 50.47C79.2733 50.47 79.6466 50.568 79.9733 50.764C80.3093 50.96 80.5706 51.2353 80.7573 51.59C80.9533 51.9353 81.0513 52.332 81.0513 52.78C81.0513 53.228 80.9533 53.6247 80.7573 53.97C80.5706 54.3153 80.3093 54.5907 79.9733 54.796C79.6466 54.992 79.2733 55.09 78.8533 55.09C78.4333 55.09 78.0553 54.992 77.7193 54.796C77.3926 54.5907 77.1313 54.3153 76.9353 53.97C76.7486 53.6247 76.6553 53.228 76.6553 52.78ZM90.2388 49.56L87.4388 52.22L90.5188 56H91.9188L88.6988 52.36L91.6388 49.56H90.2388ZM87.7188 49.56H86.6688V56H87.7188V49.56ZM84.1488 49.56H82.7488L85.6888 52.36L82.4688 56H83.8688L86.9488 52.22L84.1488 49.56ZM93.624 53.13H98.384V52.08H93.624V53.13ZM97.656 49.56V56H98.776V49.56H97.656ZM92.966 49.56V56H94.086V49.56H92.966ZM106.692 49.56V56H107.812V49.56H106.692ZM100.882 49.56V56H102.002V49.56H100.882ZM101.54 52.976H103.542C103.953 52.976 104.261 53.0647 104.466 53.242C104.671 53.4193 104.774 53.6713 104.774 53.998C104.774 54.2127 104.727 54.3993 104.634 54.558C104.541 54.7073 104.401 54.824 104.214 54.908C104.037 54.9827 103.813 55.02 103.542 55.02H101.54V56H103.542C103.99 56 104.391 55.93 104.746 55.79C105.101 55.65 105.381 55.4307 105.586 55.132C105.791 54.8333 105.894 54.4553 105.894 53.998C105.894 53.3073 105.665 52.8033 105.208 52.486C104.76 52.1593 104.205 51.996 103.542 51.996H101.54V52.976ZM115.295 50.68L115.365 49.07L110.045 54.88L109.975 56.49L115.295 50.68ZM111.095 49.56H109.975V56.49L111.095 54.95V49.56ZM115.365 49.07L114.245 50.61V56H115.365V49.07ZM110.493 46.27C110.493 46.5873 110.573 46.9 110.731 47.208C110.899 47.5067 111.147 47.754 111.473 47.95C111.809 48.1367 112.22 48.23 112.705 48.23C113.2 48.23 113.611 48.1367 113.937 47.95C114.264 47.754 114.507 47.5067 114.665 47.208C114.833 46.9 114.917 46.5873 114.917 46.27H113.923C113.923 46.3913 113.891 46.536 113.825 46.704C113.76 46.8627 113.639 47.0073 113.461 47.138C113.284 47.2593 113.032 47.32 112.705 47.32C112.379 47.32 112.127 47.2593 111.949 47.138C111.772 47.0073 111.651 46.8627 111.585 46.704C111.52 46.536 111.487 46.3913 111.487 46.27H110.493Z" fill="#282739"/>
<rect x="1.5" y="73.5" width="15" height="15" rx="1.5" fill="white" stroke="#5D6C7B"/>
<path d="M29.12 76.2V86H30.31V77.32H33.95V76.2H29.12ZM33.1795 82.78C33.1795 83.424 33.3241 84.0027 33.6135 84.516C33.9121 85.02 34.3135 85.4167 34.8175 85.706C35.3215 85.9953 35.8861 86.14 36.5115 86.14C37.1461 86.14 37.7108 85.9953 38.2055 85.706C38.7095 85.4167 39.1061 85.02 39.3955 84.516C39.6941 84.0027 39.8435 83.424 39.8435 82.78C39.8435 82.1267 39.6941 81.548 39.3955 81.044C39.1061 80.54 38.7095 80.1433 38.2055 79.854C37.7108 79.5647 37.1461 79.42 36.5115 79.42C35.8861 79.42 35.3215 79.5647 34.8175 79.854C34.3135 80.1433 33.9121 80.54 33.6135 81.044C33.3241 81.548 33.1795 82.1267 33.1795 82.78ZM34.3135 82.78C34.3135 82.332 34.4068 81.9353 34.5935 81.59C34.7895 81.2353 35.0508 80.96 35.3775 80.764C35.7135 80.568 36.0915 80.47 36.5115 80.47C36.9315 80.47 37.3048 80.568 37.6315 80.764C37.9675 80.96 38.2288 81.2353 38.4155 81.59C38.6115 81.9353 38.7095 82.332 38.7095 82.78C38.7095 83.228 38.6115 83.6247 38.4155 83.97C38.2288 84.3153 37.9675 84.5907 37.6315 84.796C37.3048 84.992 36.9315 85.09 36.5115 85.09C36.0915 85.09 35.7135 84.992 35.3775 84.796C35.0508 84.5907 34.7895 84.3153 34.5935 83.97C34.4068 83.6247 34.3135 83.228 34.3135 82.78ZM42.432 89.08V79.56H41.312V89.08H42.432ZM47.822 82.78C47.822 82.08 47.6774 81.4827 47.388 80.988C47.0987 80.484 46.7114 80.0967 46.226 79.826C45.75 79.5553 45.218 79.42 44.63 79.42C44.098 79.42 43.6267 79.5553 43.216 79.826C42.8147 80.0967 42.4974 80.484 42.264 80.988C42.04 81.4827 41.928 82.08 41.928 82.78C41.928 83.4707 42.04 84.068 42.264 84.572C42.4974 85.076 42.8147 85.4633 43.216 85.734C43.6267 86.0047 44.098 86.14 44.63 86.14C45.218 86.14 45.75 86.0047 46.226 85.734C46.7114 85.4633 47.0987 85.076 47.388 84.572C47.6774 84.068 47.822 83.4707 47.822 82.78ZM46.688 82.78C46.688 83.2747 46.5854 83.6947 46.38 84.04C46.184 84.3853 45.918 84.6467 45.582 84.824C45.2554 85.0013 44.8914 85.09 44.49 85.09C44.1634 85.09 43.8414 85.0013 43.524 84.824C43.2067 84.6467 42.9454 84.3853 42.74 84.04C42.5347 83.6947 42.432 83.2747 42.432 82.78C42.432 82.2853 42.5347 81.8653 42.74 81.52C42.9454 81.1747 43.2067 80.9133 43.524 80.736C43.8414 80.5587 44.1634 80.47 44.49 80.47C44.8914 80.47 45.2554 80.5587 45.582 80.736C45.918 80.9133 46.184 81.1747 46.38 81.52C46.5854 81.8653 46.688 82.2853 46.688 82.78ZM48.8064 82.78C48.8064 83.424 48.9511 84.0027 49.2404 84.516C49.5391 85.02 49.9404 85.4167 50.4444 85.706C50.9484 85.9953 51.5131 86.14 52.1384 86.14C52.7731 86.14 53.3377 85.9953 53.8324 85.706C54.3364 85.4167 54.7331 85.02 55.0224 84.516C55.3211 84.0027 55.4704 83.424 55.4704 82.78C55.4704 82.1267 55.3211 81.548 55.0224 81.044C54.7331 80.54 54.3364 80.1433 53.8324 79.854C53.3377 79.5647 52.7731 79.42 52.1384 79.42C51.5131 79.42 50.9484 79.5647 50.4444 79.854C49.9404 80.1433 49.5391 80.54 49.2404 81.044C48.9511 81.548 48.8064 82.1267 48.8064 82.78ZM49.9404 82.78C49.9404 82.332 50.0337 81.9353 50.2204 81.59C50.4164 81.2353 50.6777 80.96 51.0044 80.764C51.3404 80.568 51.7184 80.47 52.1384 80.47C52.5584 80.47 52.9317 80.568 53.2584 80.764C53.5944 80.96 53.8557 81.2353 54.0424 81.59C54.2384 81.9353 54.3364 82.332 54.3364 82.78C54.3364 83.228 54.2384 83.6247 54.0424 83.97C53.8557 84.3153 53.5944 84.5907 53.2584 84.796C52.9317 84.992 52.5584 85.09 52.1384 85.09C51.7184 85.09 51.3404 84.992 51.0044 84.796C50.6777 84.5907 50.4164 84.3153 50.2204 83.97C50.0337 83.6247 49.9404 83.228 49.9404 82.78ZM59.8117 81.492L61.7017 85.58H62.9617L59.8117 79.07L56.6617 85.58H57.9217L59.8117 81.492ZM62.6817 86V87.26H63.8017V84.95H55.8217V87.26H57.0117V86H62.6817ZM65.9895 82.78C65.9895 82.332 66.0829 81.9353 66.2695 81.59C66.4655 81.2353 66.7269 80.96 67.0535 80.764C67.3895 80.568 67.7675 80.47 68.1875 80.47C68.5329 80.47 68.8549 80.526 69.1535 80.638C69.4615 80.7407 69.7275 80.8807 69.9515 81.058C70.1755 81.2353 70.3342 81.4313 70.4275 81.646V80.246C70.2035 79.9847 69.8815 79.784 69.4615 79.644C69.0509 79.4947 68.6262 79.42 68.1875 79.42C67.5622 79.42 66.9975 79.5647 66.4935 79.854C65.9895 80.1433 65.5882 80.54 65.2895 81.044C65.0002 81.548 64.8555 82.1267 64.8555 82.78C64.8555 83.424 65.0002 84.0027 65.2895 84.516C65.5882 85.02 65.9895 85.4167 66.4935 85.706C66.9975 85.9953 67.5622 86.14 68.1875 86.14C68.6262 86.14 69.0509 86.07 69.4615 85.93C69.8815 85.7807 70.2035 85.5753 70.4275 85.314V83.914C70.3342 84.1193 70.1755 84.3153 69.9515 84.502C69.7275 84.6793 69.4615 84.824 69.1535 84.936C68.8549 85.0387 68.5329 85.09 68.1875 85.09C67.7675 85.09 67.3895 84.992 67.0535 84.796C66.7269 84.5907 66.4655 84.3153 66.2695 83.97C66.0829 83.6247 65.9895 83.228 65.9895 82.78ZM72.1011 79.56V86H73.2211V79.56H72.1011ZM75.6011 79.56L72.8011 82.22L75.8811 86H77.2811L74.2011 82.22L77.0011 79.56H75.6011ZM77.572 82.78C77.572 83.424 77.7167 84.0027 78.006 84.516C78.3047 85.02 78.706 85.4167 79.21 85.706C79.714 85.9953 80.2787 86.14 80.904 86.14C81.5387 86.14 82.1034 85.9953 82.598 85.706C83.102 85.4167 83.4987 85.02 83.788 84.516C84.0867 84.0027 84.236 83.424 84.236 82.78C84.236 82.1267 84.0867 81.548 83.788 81.044C83.4987 80.54 83.102 80.1433 82.598 79.854C82.1034 79.5647 81.5387 79.42 80.904 79.42C80.2787 79.42 79.714 79.5647 79.21 79.854C78.706 80.1433 78.3047 80.54 78.006 81.044C77.7167 81.548 77.572 82.1267 77.572 82.78ZM78.706 82.78C78.706 82.332 78.7994 81.9353 78.986 81.59C79.182 81.2353 79.4434 80.96 79.77 80.764C80.106 80.568 80.484 80.47 80.904 80.47C81.324 80.47 81.6974 80.568 82.024 80.764C82.36 80.96 82.6214 81.2353 82.808 81.59C83.004 81.9353 83.102 82.332 83.102 82.78C83.102 83.228 83.004 83.6247 82.808 83.97C82.6214 84.3153 82.36 84.5907 82.024 84.796C81.6974 84.992 81.324 85.09 80.904 85.09C80.484 85.09 80.106 84.992 79.77 84.796C79.4434 84.5907 79.182 84.3153 78.986 83.97C78.7994 83.6247 78.706 83.228 78.706 82.78ZM91.1646 80.68L91.2346 79.07L85.9146 84.88L85.8446 86.49L91.1646 80.68ZM86.9646 79.56H85.8446V86.49L86.9646 84.95V79.56ZM91.2346 79.07L90.1146 80.61V86H91.2346V79.07ZM86.3626 76.27C86.3626 76.5873 86.4419 76.9 86.6006 77.208C86.7686 77.5067 87.0159 77.754 87.3426 77.95C87.6786 78.1367 88.0893 78.23 88.5746 78.23C89.0693 78.23 89.4799 78.1367 89.8066 77.95C90.1333 77.754 90.3759 77.5067 90.5346 77.208C90.7026 76.9 90.7866 76.5873 90.7866 76.27H89.7926C89.7926 76.3913 89.7599 76.536 89.6946 76.704C89.6293 76.8627 89.5079 77.0073 89.3306 77.138C89.1533 77.2593 88.9013 77.32 88.5746 77.32C88.2479 77.32 87.9959 77.2593 87.8186 77.138C87.6413 77.0073 87.5199 76.8627 87.4546 76.704C87.3893 76.536 87.3566 76.3913 87.3566 76.27H86.3626Z" fill="#282739"/>
<rect x="1.5" y="103.5" width="15" height="15" rx="1.5" fill="white" stroke="#5D6C7B"/>
<path d="M31.962 111.17C32.5033 111.17 32.9933 111.105 33.432 110.974C33.88 110.843 34.2627 110.666 34.58 110.442C34.8973 110.209 35.14 109.943 35.308 109.644C35.4853 109.336 35.574 109.009 35.574 108.664C35.574 108.197 35.448 107.768 35.196 107.376C34.944 106.984 34.5847 106.667 34.118 106.424C33.6513 106.181 33.0913 106.06 32.438 106.06C31.8127 106.06 31.2573 106.172 30.772 106.396C30.296 106.611 29.9227 106.909 29.652 107.292C29.3907 107.675 29.26 108.123 29.26 108.636H30.394C30.394 108.347 30.4827 108.09 30.66 107.866C30.8373 107.642 31.08 107.465 31.388 107.334C31.7053 107.203 32.06 107.138 32.452 107.138C32.872 107.138 33.222 107.203 33.502 107.334C33.7913 107.465 34.006 107.651 34.146 107.894C34.286 108.127 34.356 108.398 34.356 108.706C34.356 109.014 34.2627 109.299 34.076 109.56C33.8893 109.812 33.6187 110.017 33.264 110.176C32.9093 110.325 32.4753 110.4 31.962 110.4V111.17ZM32.382 116.14C33.11 116.14 33.7307 116.028 34.244 115.804C34.7667 115.58 35.1633 115.263 35.434 114.852C35.714 114.441 35.854 113.961 35.854 113.41C35.854 112.757 35.6813 112.234 35.336 111.842C34.9907 111.441 34.524 111.147 33.936 110.96C33.348 110.773 32.69 110.68 31.962 110.68V111.45C32.4753 111.45 32.9327 111.52 33.334 111.66C33.7353 111.791 34.0527 111.991 34.286 112.262C34.5193 112.533 34.636 112.869 34.636 113.27C34.636 113.802 34.454 114.227 34.09 114.544C33.726 114.861 33.1567 115.02 32.382 115.02C31.8687 115.02 31.444 114.95 31.108 114.81C30.7813 114.67 30.5293 114.479 30.352 114.236C30.184 113.993 30.0813 113.718 30.044 113.41H28.84C28.84 113.793 28.9147 114.152 29.064 114.488C29.2227 114.815 29.4513 115.104 29.75 115.356C30.0487 115.599 30.4173 115.79 30.856 115.93C31.2947 116.07 31.8033 116.14 32.382 116.14ZM42.9302 110.68L43.0002 109.07L37.6802 114.88L37.6102 116.49L42.9302 110.68ZM38.7302 109.56H37.6102V116.49L38.7302 114.95V109.56ZM43.0002 109.07L41.8802 110.61V116H43.0002V109.07ZM51.2871 116H52.5471L50.8671 109.07L50.2371 110.89L51.2871 116ZM47.9271 115.034L48.3471 116.434L51.0071 111.31L50.8671 109.07L47.9271 115.034ZM48.3471 116.434L48.7671 115.034L45.8691 109.07L45.7291 111.31L48.3471 116.434ZM44.1891 116H45.4491L46.4991 110.89L45.8691 109.07L44.1891 116ZM54.331 113.13H59.091V112.08H54.331V113.13ZM58.363 109.56V116H59.483V109.56H58.363ZM53.673 109.56V116H54.793V109.56H53.673ZM66.9791 110.68L67.0491 109.07L61.7291 114.88L61.6591 116.49L66.9791 110.68ZM62.7791 109.56H61.6591V116.49L62.7791 114.95V109.56ZM67.0491 109.07L65.9291 110.61V116H67.0491V109.07ZM74.608 110.68L74.678 109.07L69.358 114.88L69.288 116.49L74.608 110.68ZM70.408 109.56H69.288V116.49L70.408 114.95V109.56ZM74.678 109.07L73.558 110.61V116H74.678V109.07ZM69.806 106.27C69.806 106.587 69.8853 106.9 70.044 107.208C70.212 107.507 70.4593 107.754 70.786 107.95C71.122 108.137 71.5326 108.23 72.018 108.23C72.5126 108.23 72.9233 108.137 73.25 107.95C73.5766 107.754 73.8193 107.507 73.978 107.208C74.146 106.9 74.23 106.587 74.23 106.27H73.236C73.236 106.391 73.2033 106.536 73.138 106.704C73.0726 106.863 72.9513 107.007 72.774 107.138C72.5966 107.259 72.3446 107.32 72.018 107.32C71.6913 107.32 71.4393 107.259 71.262 107.138C71.0846 107.007 70.9633 106.863 70.898 106.704C70.8326 106.536 70.8 106.391 70.8 106.27H69.806Z" fill="#282739"/>
</svg>
