<svg width="18" height="18" viewBox="0 0 18 18" fill="none" xmlns="http://www.w3.org/2000/svg">
<rect x="1" y="1" width="16" height="16" rx="2" fill="white"/>
<path d="M4.91308 8.03516H4.91326C4.99256 8.03525 5.07081 8.05331 5.14213 8.08798C5.21341 8.12262 5.27591 8.17295 5.32497 8.2352L4.91308 8.03516ZM4.91308 8.03516H4.09394C3.89031 8.03516 3.7766 8.26975 3.90232 8.4292L3.90237 8.42927L7.11214 12.4957L7.11218 12.4957C7.32247 12.7619 7.72568 12.7611 7.93667 12.4962L7.93708 12.4957L13.6597 5.24398C13.6598 5.24377 13.66 5.24357 13.6602 5.24336C13.7884 5.08293 13.6699 4.85 13.4689 4.85H12.6498C12.4894 4.85 12.3367 4.9235 12.2376 5.05044C12.2375 5.05055 12.2374 5.05066 12.2373 5.05077L7.52403 11.0216M4.91308 8.03516L7.52403 11.0216M7.52403 11.0216L5.32506 8.23531L7.52403 11.0216Z" fill="#5D6C7B" stroke="#5D6C7B" stroke-width="0.3"/>
<rect x="0.5" y="0.5" width="17" height="17" rx="1.5" stroke="#5D6C7B"/>
</svg>
