<svg width="20" height="20" viewBox="0 0 20 20" fill="none" xmlns="http://www.w3.org/2000/svg">
<path d="M17.9936 5.51496C17.733 4.90541 17.3571 4.35303 16.8871 3.88876C16.4168 3.4231 15.8622 3.05305 15.2536 2.79873C14.6225 2.53397 13.9456 2.39845 13.2623 2.40004C12.3035 2.40004 11.3682 2.66518 10.5553 3.166C10.3608 3.28581 10.1761 3.4174 10.0011 3.56077C9.82604 3.4174 9.6413 3.28581 9.44683 3.166C8.63396 2.66518 7.69857 2.40004 6.73985 2.40004C6.0495 2.40004 5.38053 2.53359 4.74851 2.79873C4.13789 3.05405 3.58755 3.42132 3.11499 3.88876C2.64438 4.35251 2.26844 4.90501 2.00848 5.51496C1.73817 6.14934 1.6001 6.823 1.6001 7.51629C1.6001 8.17031 1.73234 8.85182 1.99487 9.54512C2.21461 10.1245 2.52965 10.7255 2.93219 11.3324C3.57005 12.2928 4.44709 13.2944 5.5361 14.3098C7.34075 15.993 9.1279 17.1557 9.20375 17.2028L9.66463 17.5013C9.86882 17.6329 10.1314 17.6329 10.3355 17.5013L10.7964 17.2028C10.8723 17.1537 12.6575 15.993 14.4641 14.3098C15.5531 13.2944 16.4301 12.2928 17.068 11.3324C17.4705 10.7255 17.7875 10.1245 18.0053 9.54512C18.2678 8.85182 18.4001 8.17031 18.4001 7.51629C18.402 6.823 18.264 6.14934 17.9936 5.51496ZM10.0011 15.9478C10.0011 15.9478 3.07804 11.4679 3.07804 7.51629C3.07804 5.51496 4.7174 3.89269 6.73985 3.89269C8.1614 3.89269 9.39432 4.69401 10.0011 5.86456C10.6078 4.69401 11.8407 3.89269 13.2623 3.89269C15.2847 3.89269 16.9241 5.51496 16.9241 7.51629C16.9241 11.4679 10.0011 15.9478 10.0011 15.9478Z" fill="#6F73EE"/>
</svg>
