<svg width="20" height="12" viewBox="0 0 20 12" fill="none" xmlns="http://www.w3.org/2000/svg">
<mask id="path-1-inside-1_161_1134" fill="white">
<path d="M19.4141 7.26399H18.7766L16.7349 2.32559C17.0208 2.28669 17.2413 2.04223 17.2413 1.74567C17.2413 1.42208 16.979 1.15973 16.6554 1.15973H11.6177C11.3769 0.490945 10.7363 0.0114136 9.98559 0.0114136C9.23488 0.0114136 8.59422 0.490984 8.3534 1.15973H3.34465C3.02105 1.15973 2.75871 1.42208 2.75871 1.74567C2.75871 2.04223 2.97926 2.28669 3.26512 2.32559L1.22344 7.26399H0.585938C0.262344 7.26399 0 7.52634 0 7.84993C0 10.1321 1.85668 11.9888 4.13883 11.9888C6.42098 11.9888 8.27766 10.1321 8.27766 7.84993C8.27766 7.52634 8.01531 7.26399 7.69172 7.26399H7.05418L5.01504 2.33161H8.3534C8.59422 3.0004 9.23484 3.47993 9.98559 3.47993C10.7363 3.47993 11.3769 3.0004 11.6177 2.33161H14.985L12.9459 7.26399H12.3083C11.9847 7.26399 11.7224 7.52634 11.7224 7.84993C11.7224 10.1321 13.5791 11.9888 15.8612 11.9888C18.1434 11.9888 20 10.1321 20 7.84993C20 7.52634 19.7377 7.26399 19.4141 7.26399ZM4.13883 10.8169C2.70332 10.8169 1.5027 9.79223 1.22996 8.43587H7.0477C6.77496 9.79223 5.57434 10.8169 4.13883 10.8169ZM5.78613 7.26399H2.49152L4.13883 3.27946L5.78613 7.26399ZM9.98555 2.30805C9.67543 2.30805 9.42316 2.05579 9.42316 1.74567C9.42316 1.43555 9.67543 1.18329 9.98555 1.18329C10.2956 1.18329 10.5479 1.43555 10.5479 1.74567C10.5479 2.05579 10.2957 2.30805 9.98555 2.30805ZM15.8612 3.27946L17.5085 7.26399H14.2139L15.8612 3.27946ZM15.8612 10.8169C14.4257 10.8169 13.225 9.79223 12.9523 8.43587H18.77C18.4973 9.79223 17.2966 10.8169 15.8612 10.8169Z"/>
</mask>
<path d="M19.4141 7.26399H18.7766L16.7349 2.32559C17.0208 2.28669 17.2413 2.04223 17.2413 1.74567C17.2413 1.42208 16.979 1.15973 16.6554 1.15973H11.6177C11.3769 0.490945 10.7363 0.0114136 9.98559 0.0114136C9.23488 0.0114136 8.59422 0.490984 8.3534 1.15973H3.34465C3.02105 1.15973 2.75871 1.42208 2.75871 1.74567C2.75871 2.04223 2.97926 2.28669 3.26512 2.32559L1.22344 7.26399H0.585938C0.262344 7.26399 0 7.52634 0 7.84993C0 10.1321 1.85668 11.9888 4.13883 11.9888C6.42098 11.9888 8.27766 10.1321 8.27766 7.84993C8.27766 7.52634 8.01531 7.26399 7.69172 7.26399H7.05418L5.01504 2.33161H8.3534C8.59422 3.0004 9.23484 3.47993 9.98559 3.47993C10.7363 3.47993 11.3769 3.0004 11.6177 2.33161H14.985L12.9459 7.26399H12.3083C11.9847 7.26399 11.7224 7.52634 11.7224 7.84993C11.7224 10.1321 13.5791 11.9888 15.8612 11.9888C18.1434 11.9888 20 10.1321 20 7.84993C20 7.52634 19.7377 7.26399 19.4141 7.26399ZM4.13883 10.8169C2.70332 10.8169 1.5027 9.79223 1.22996 8.43587H7.0477C6.77496 9.79223 5.57434 10.8169 4.13883 10.8169ZM5.78613 7.26399H2.49152L4.13883 3.27946L5.78613 7.26399ZM9.98555 2.30805C9.67543 2.30805 9.42316 2.05579 9.42316 1.74567C9.42316 1.43555 9.67543 1.18329 9.98555 1.18329C10.2956 1.18329 10.5479 1.43555 10.5479 1.74567C10.5479 2.05579 10.2957 2.30805 9.98555 2.30805ZM15.8612 3.27946L17.5085 7.26399H14.2139L15.8612 3.27946ZM15.8612 10.8169C14.4257 10.8169 13.225 9.79223 12.9523 8.43587H18.77C18.4973 9.79223 17.2966 10.8169 15.8612 10.8169Z" fill="#5D6C7B"/>
<path d="M18.7766 7.26399L15.08 8.79222L16.1019 11.264H18.7766V7.26399ZM16.7349 2.32559L16.1956 -1.63788L11.0571 -0.93861L13.0384 3.85383L16.7349 2.32559ZM11.6177 1.15973L7.85429 2.51489L8.80665 5.15973H11.6177V1.15973ZM8.3534 1.15973V5.15973H11.1644L12.1168 2.51496L8.3534 1.15973ZM3.26512 2.32559L6.96166 3.85385L8.94296 -0.938514L3.80455 -1.63787L3.26512 2.32559ZM1.22344 7.26399V11.264H3.89809L4.91998 8.79225L1.22344 7.26399ZM7.05418 7.26399L3.35762 8.79222L4.3795 11.264H7.05418V7.26399ZM5.01504 2.33161V-1.66839H-0.966991L1.31848 3.85984L5.01504 2.33161ZM8.3534 2.33161L12.1168 0.976451L11.1645 -1.66839H8.3534V2.33161ZM11.6177 2.33161V-1.66839H8.80665L7.85429 0.976451L11.6177 2.33161ZM14.985 2.33161L18.6816 3.85983L20.967 -1.66839H14.985V2.33161ZM12.9459 7.26399V11.264H15.6205L16.6424 8.79222L12.9459 7.26399ZM1.22996 8.43587V4.43587H-3.65441L-2.69155 9.22439L1.22996 8.43587ZM7.0477 8.43587L10.9692 9.22439L11.9321 4.43587H7.0477V8.43587ZM5.78613 7.26399V11.264H11.7682L9.48268 5.73575L5.78613 7.26399ZM2.49152 7.26399L-1.20502 5.73575L-3.49054 11.264H2.49152V7.26399ZM4.13883 3.27946L7.83538 1.75122L4.13883 -7.19006L0.44228 1.75122L4.13883 3.27946ZM15.8612 3.27946L19.5577 1.75122L15.8612 -7.19006L12.1646 1.75122L15.8612 3.27946ZM17.5085 7.26399V11.264H23.4905L21.205 5.73575L17.5085 7.26399ZM14.2139 7.26399L10.5173 5.73575L8.2318 11.264H14.2139V7.26399ZM12.9523 8.43587V4.43587H8.06793L9.0308 9.22439L12.9523 8.43587ZM18.77 8.43587L22.6915 9.22439L23.6544 4.43587H18.77V8.43587ZM19.4141 3.26399H18.7766V11.264H19.4141V3.26399ZM22.4731 5.73576L20.4315 0.797359L13.0384 3.85383L15.08 8.79222L22.4731 5.73576ZM17.2743 6.28906C19.5083 5.98505 21.2413 4.0774 21.2413 1.74567H13.2413C13.2413 0.00706535 14.5334 -1.41168 16.1956 -1.63788L17.2743 6.28906ZM21.2413 1.74567C21.2413 -0.787061 19.1881 -2.84027 16.6554 -2.84027V5.15973C14.7698 5.15973 13.2413 3.63122 13.2413 1.74567H21.2413ZM16.6554 -2.84027H11.6177V5.15973H16.6554V-2.84027ZM15.3812 -0.195424C14.5889 -2.3958 12.4809 -3.98859 9.98559 -3.98859V4.01141C8.99163 4.01141 8.16497 3.37769 7.85429 2.51489L15.3812 -0.195424ZM9.98559 -3.98859C7.49022 -3.98859 5.38231 -2.39577 4.58997 -0.195494L12.1168 2.51496C11.8061 3.37774 10.9795 4.01141 9.98559 4.01141V-3.98859ZM8.3534 -2.84027H3.34465V5.15973H8.3534V-2.84027ZM3.34465 -2.84027C0.811916 -2.84027 -1.24129 -0.787061 -1.24129 1.74567H6.75871C6.75871 3.63122 5.23019 5.15973 3.34465 5.15973V-2.84027ZM-1.24129 1.74567C-1.24129 4.07764 0.492035 5.98505 2.72568 6.28905L3.80455 -1.63787C5.46648 -1.41167 6.75871 0.00682783 6.75871 1.74567H-1.24129ZM-0.431425 0.797333L-2.4731 5.73573L4.91998 8.79225L6.96166 3.85385L-0.431425 0.797333ZM1.22344 3.26399H0.585938V11.264H1.22344V3.26399ZM0.585938 3.26399C-1.9468 3.26399 -4 5.3172 -4 7.84993H4C4 9.73547 2.47148 11.264 0.585938 11.264V3.26399ZM-4 7.84993C-4 12.3412 -0.352459 15.9888 4.13883 15.9888V7.98876C4.11514 7.98876 4.10112 7.98472 4.08983 7.97993C4.07582 7.974 4.05865 7.96333 4.04204 7.94672C4.02542 7.93011 4.01476 7.91293 4.00882 7.89893C4.00404 7.88764 4 7.87361 4 7.84993H-4ZM4.13883 15.9888C8.63012 15.9888 12.2777 12.3412 12.2777 7.84993H4.27766C4.27766 7.87361 4.27362 7.88764 4.26883 7.89893C4.2629 7.91293 4.25223 7.93011 4.23562 7.94672C4.21901 7.96333 4.20183 7.974 4.18783 7.97993C4.17654 7.98472 4.16251 7.98876 4.13883 7.98876V15.9888ZM12.2777 7.84993C12.2777 5.3172 10.2245 3.26399 7.69172 3.26399V11.264C5.80617 11.264 4.27766 9.73547 4.27766 7.84993H12.2777ZM7.69172 3.26399H7.05418V11.264H7.69172V3.26399ZM10.7507 5.73576L8.71159 0.803382L1.31848 3.85984L3.35762 8.79222L10.7507 5.73576ZM5.01504 6.33161H8.3534V-1.66839H5.01504V6.33161ZM4.58995 3.68677C5.38229 5.8872 7.49024 7.47993 9.98559 7.47993V-0.520071C10.9795 -0.520071 11.8061 0.113598 12.1168 0.976451L4.58995 3.68677ZM9.98559 7.47993C12.4809 7.47993 14.5889 5.88715 15.3812 3.68677L7.85429 0.976451C8.16497 0.113648 8.99163 -0.520071 9.98559 -0.520071V7.47993ZM11.6177 6.33161H14.985V-1.66839H11.6177V6.33161ZM11.2884 0.803383L9.2493 5.73577L16.6424 8.79222L18.6816 3.85983L11.2884 0.803383ZM12.9459 3.26399H12.3083V11.264H12.9459V3.26399ZM12.3083 3.26399C9.77559 3.26399 7.72238 5.3172 7.72238 7.84993H15.7224C15.7224 9.73547 14.1939 11.264 12.3083 11.264V3.26399ZM7.72238 7.84993C7.72238 12.3412 11.3699 15.9888 15.8612 15.9888V7.98876C15.8375 7.98876 15.8235 7.98472 15.8122 7.97993C15.7982 7.974 15.781 7.96333 15.7644 7.94672C15.7478 7.93011 15.7371 7.91293 15.7312 7.89893C15.7264 7.88764 15.7224 7.87361 15.7224 7.84993H7.72238ZM15.8612 15.9888C20.3525 15.9888 24 12.3412 24 7.84993H16C16 7.87363 15.996 7.88766 15.9912 7.89895C15.9852 7.91296 15.9746 7.93013 15.958 7.94674C15.9414 7.96335 15.9242 7.97401 15.9102 7.97994C15.8989 7.98472 15.8849 7.98876 15.8612 7.98876V15.9888ZM24 7.84993C24 5.3172 21.9468 3.26399 19.4141 3.26399V11.264C17.5285 11.264 16 9.73547 16 7.84993H24ZM4.13883 6.81688C4.64856 6.81688 5.05659 7.17549 5.15147 7.64734L-2.69155 9.22439C-2.0512 12.409 0.758084 14.8169 4.13883 14.8169V6.81688ZM1.22996 12.4359H7.0477V4.43587H1.22996V12.4359ZM3.12619 7.64734C3.22107 7.17549 3.6291 6.81688 4.13883 6.81688V14.8169C7.51957 14.8169 10.3289 12.409 10.9692 9.22439L3.12619 7.64734ZM5.78613 3.26399H2.49152V11.264H5.78613V3.26399ZM6.18807 8.79224L7.83538 4.80771L0.44228 1.75122L-1.20502 5.73575L6.18807 8.79224ZM0.44228 4.80771L2.08958 8.79224L9.48268 5.73575L7.83538 1.75122L0.44228 4.80771ZM9.98555 -1.69195C11.8846 -1.69195 13.4232 -0.153353 13.4232 1.74567H5.42316C5.42316 4.26493 7.46629 6.30805 9.98555 6.30805V-1.69195ZM13.4232 1.74567C13.4232 3.64469 11.8846 5.18329 9.98555 5.18329V-2.81671C7.46629 -2.81671 5.42316 -0.773582 5.42316 1.74567H13.4232ZM9.98555 5.18329C8.08667 5.18329 6.54793 3.64487 6.54793 1.74567H14.5479C14.5479 -0.773763 12.5046 -2.81671 9.98555 -2.81671V5.18329ZM6.54793 1.74567C6.54793 -0.153353 8.08653 -1.69195 9.98555 -1.69195V6.30805C12.5048 6.30805 14.5479 4.26493 14.5479 1.74567H6.54793ZM12.1646 4.80771L13.8119 8.79224L21.205 5.73575L19.5577 1.75122L12.1646 4.80771ZM17.5085 3.26399H14.2139V11.264H17.5085V3.26399ZM17.9104 8.79224L19.5577 4.80771L12.1646 1.75122L10.5173 5.73575L17.9104 8.79224ZM15.8612 6.81688C16.3709 6.81688 16.7789 7.17549 16.8738 7.64734L9.0308 9.22439C9.67114 12.409 12.4804 14.8169 15.8612 14.8169V6.81688ZM12.9523 12.4359H18.77V4.43587H12.9523V12.4359ZM14.8485 7.64734C14.9434 7.17546 15.3514 6.81688 15.8612 6.81688V14.8169C19.2418 14.8169 22.0512 12.409 22.6915 9.22439L14.8485 7.64734Z" fill="#5D6C7B" mask="url(#path-1-inside-1_161_1134)"/>
</svg>
