<svg width="18" height="18" viewBox="0 0 18 18" fill="none" xmlns="http://www.w3.org/2000/svg">
<path d="M14.2233 0.260732C14.14 0.101188 13.9749 0 13.7948 0H6.72922C6.51554 0 6.32724 0.141421 6.26611 0.346092L3.74215 8.80412C3.69848 8.95043 3.72651 9.10792 3.81773 9.23032C3.90895 9.35277 4.05266 9.42405 4.20526 9.42405H8.16693L6.57094 17.4212C6.52449 17.6538 6.65364 17.8862 6.87583 17.9691C6.93123 17.9898 6.98838 18 7.04474 18C7.21425 18 7.37676 17.9106 7.46484 17.7559L13.6889 6.82597C13.7741 6.67634 13.7733 6.49172 13.6868 6.34287C13.6003 6.19402 13.4411 6.10147 13.269 6.10147H10.4664L14.1912 0.760267C14.2942 0.612563 14.3066 0.420397 14.2233 0.260732Z" fill="#5D6C7B"/>
</svg>
