<svg width="20" height="20" viewBox="0 0 20 20" fill="none" xmlns="http://www.w3.org/2000/svg">
<g clip-path="url(#clip0_132_1171)">
<path d="M19.703 7.22911C19.4389 6.89778 19.0427 6.7077 18.6159 6.7077H14.7642L12.6756 1.92516C12.5461 1.62864 12.2007 1.49313 11.9041 1.6227C11.6076 1.75219 11.4721 2.09762 11.6017 2.39418L13.4854 6.70774H6.51443L8.39822 2.39418C8.52771 2.09762 8.39232 1.75223 8.09576 1.6227C7.79924 1.49313 7.45381 1.62856 7.32432 1.92516L5.23568 6.70774H1.38396C0.957168 6.70774 0.560957 6.89778 0.296855 7.22915C0.0375977 7.55446 -0.0580664 7.97266 0.0343946 8.37665L2.09131 17.361C2.23494 17.9884 2.7899 18.4265 3.44088 18.4265H16.559C17.21 18.4265 17.7649 17.9884 17.9086 17.361L19.9655 8.37661C20.0579 7.97262 19.9623 7.55442 19.703 7.22911ZM16.559 17.2546H3.44088C3.34139 17.2546 3.25424 17.1893 3.23365 17.0994L1.17674 8.11512C1.16061 8.04461 1.18768 7.99157 1.2133 7.9595C1.23705 7.92965 1.29084 7.87961 1.38396 7.87961H4.72393L4.57045 8.23106C4.44096 8.52762 4.57635 8.87301 4.87291 9.00254C4.94924 9.0359 5.02877 9.05168 5.10709 9.05168C5.33295 9.05168 5.54818 8.92032 5.64436 8.70012L6.00268 7.87969H13.9973L14.3556 8.70012C14.4518 8.92036 14.667 9.05168 14.8929 9.05168C14.9712 9.05168 15.0507 9.0359 15.1271 9.00254C15.4236 8.87305 15.559 8.52762 15.4295 8.23106L15.276 7.87961H18.616C18.7091 7.87961 18.7629 7.92965 18.7867 7.9595C18.8122 7.99161 18.8394 8.04465 18.8232 8.11508L16.7663 17.0995C16.7457 17.1893 16.6585 17.2546 16.559 17.2546Z" fill="#6F73EE"/>
<path d="M19.703 7.22911C19.4389 6.89778 19.0427 6.7077 18.6159 6.7077H14.7642L12.6756 1.92516C12.5461 1.62864 12.2007 1.49313 11.9041 1.6227C11.6076 1.75219 11.4721 2.09762 11.6017 2.39418L13.4854 6.70774H6.51443L8.39822 2.39418C8.52771 2.09762 8.39232 1.75223 8.09576 1.6227C7.79924 1.49313 7.45381 1.62856 7.32432 1.92516L5.23568 6.70774H1.38396C0.957168 6.70774 0.560957 6.89778 0.296855 7.22915C0.0375977 7.55446 -0.0580664 7.97266 0.0343946 8.37665L2.09131 17.361C2.23494 17.9884 2.7899 18.4265 3.44088 18.4265H16.559C17.21 18.4265 17.7649 17.9884 17.9086 17.361L19.9655 8.37661C20.0579 7.97262 19.9623 7.55442 19.703 7.22911ZM16.559 17.2546H3.44088C3.34139 17.2546 3.25424 17.1893 3.23365 17.0994L1.17674 8.11512C1.16061 8.04461 1.18768 7.99157 1.2133 7.9595C1.23705 7.92965 1.29084 7.87961 1.38396 7.87961H4.72393L4.57045 8.23106C4.44096 8.52762 4.57635 8.87301 4.87291 9.00254C4.94924 9.0359 5.02877 9.05168 5.10709 9.05168C5.33295 9.05168 5.54818 8.92032 5.64436 8.70012L6.00268 7.87969H13.9973L14.3556 8.70012C14.4518 8.92036 14.667 9.05168 14.8929 9.05168C14.9712 9.05168 15.0507 9.0359 15.1271 9.00254C15.4236 8.87305 15.559 8.52762 15.4295 8.23106L15.276 7.87961H18.616C18.7091 7.87961 18.7629 7.92965 18.7867 7.9595C18.8122 7.99161 18.8394 8.04465 18.8232 8.11508L16.7663 17.0995C16.7457 17.1893 16.6585 17.2546 16.559 17.2546Z" stroke="#6F73EE"/>
<path d="M6.48438 10.4188C6.16078 10.4188 5.89844 10.6812 5.89844 11.0048V15.3016C5.89844 15.6252 6.16078 15.8876 6.48438 15.8876C6.80797 15.8876 7.07031 15.6252 7.07031 15.3016V11.0048C7.07031 10.6812 6.80801 10.4188 6.48438 10.4188Z" fill="#6F73EE"/>
<path d="M6.48438 10.4188C6.16078 10.4188 5.89844 10.6812 5.89844 11.0048V15.3016C5.89844 15.6252 6.16078 15.8876 6.48438 15.8876C6.80797 15.8876 7.07031 15.6252 7.07031 15.3016V11.0048C7.07031 10.6812 6.80801 10.4188 6.48438 10.4188Z" stroke="#6F73EE"/>
<path d="M10 10.4188C9.67641 10.4188 9.41406 10.6812 9.41406 11.0048V15.3016C9.41406 15.6252 9.67641 15.8876 10 15.8876C10.3236 15.8876 10.5859 15.6252 10.5859 15.3016V11.0048C10.5859 10.6812 10.3236 10.4188 10 10.4188Z" fill="#6F73EE"/>
<path d="M10 10.4188C9.67641 10.4188 9.41406 10.6812 9.41406 11.0048V15.3016C9.41406 15.6252 9.67641 15.8876 10 15.8876C10.3236 15.8876 10.5859 15.6252 10.5859 15.3016V11.0048C10.5859 10.6812 10.3236 10.4188 10 10.4188Z" stroke="#6F73EE"/>
<path d="M13.5156 10.4188C13.192 10.4188 12.9297 10.6812 12.9297 11.0048V15.3016C12.9297 15.6252 13.192 15.8876 13.5156 15.8876C13.8392 15.8876 14.1016 15.6252 14.1016 15.3016V11.0048C14.1015 10.6812 13.8392 10.4188 13.5156 10.4188Z" fill="#6F73EE"/>
<path d="M13.5156 10.4188C13.192 10.4188 12.9297 10.6812 12.9297 11.0048V15.3016C12.9297 15.6252 13.192 15.8876 13.5156 15.8876C13.8392 15.8876 14.1016 15.6252 14.1016 15.3016V11.0048C14.1015 10.6812 13.8392 10.4188 13.5156 10.4188Z" stroke="#6F73EE"/>
</g>
<defs>
<clipPath id="clip0_132_1171">
<rect width="20" height="20" fill="white"/>
</clipPath>
</defs>
</svg>
