<svg width="18" height="18" viewBox="0 0 18 18" fill="none" xmlns="http://www.w3.org/2000/svg">
<path d="M8.47256 4.56443V1.23608C6.43976 1.35277 4.53345 2.14269 3.01185 3.49878L5.36507 5.85199C6.25065 5.11477 7.32598 4.6692 8.47256 4.56443Z" fill="#5D6C7B"/>
<path d="M4.61915 6.59762L2.26597 4.24445C0.908729 5.76562 0.117819 7.67207 0.000396729 9.70536H3.32889C3.43435 8.55853 3.88084 7.48314 4.61915 6.59762Z" fill="#5D6C7B"/>
<path d="M14.671 9.70536H17.9995C17.8821 7.67207 17.0912 5.76562 15.734 4.24445L13.3808 6.59762C14.1191 7.4831 14.5656 8.55853 14.671 9.70536Z" fill="#5D6C7B"/>
<path d="M14.6703 10.7601C14.4959 12.676 13.4441 13.845 13.0266 14.2625C12.8203 14.4688 12.8203 14.8033 13.0266 15.0096L14.6266 16.6097C14.7298 16.7129 14.865 16.7644 15.0002 16.7644C15.1354 16.7644 15.2705 16.7129 15.3737 16.6097C16.953 15.0305 17.874 12.9699 18 10.7601H14.6703Z" fill="#5D6C7B"/>
<path d="M3.27189 13.7859C3.41919 13.5544 3.64215 13.2058 3.90962 12.7934C3.63544 12.2499 3.40358 11.5724 3.32965 10.7601H0C0.126035 12.9699 1.04695 15.0305 2.62628 16.6098C2.72943 16.7129 2.8646 16.7645 2.99978 16.7645C3.13495 16.7645 3.27016 16.7129 3.37331 16.6098L3.92119 16.0618C3.76249 15.9854 3.61607 15.8822 3.48785 15.754C2.95952 15.2256 2.87068 14.4163 3.27189 13.7859Z" fill="#5D6C7B"/>
<path d="M9.52734 1.23608V4.56443C10.6739 4.6692 11.7493 5.11473 12.6348 5.85199L14.9881 3.49878C13.4665 2.14266 11.5601 1.35277 9.52734 1.23608Z" fill="#5D6C7B"/>
<path d="M7.82843 9.06998C7.01224 9.88617 4.4511 13.8973 4.16176 14.352C4.02905 14.5605 4.059 14.8332 4.23376 15.008C4.40853 15.1828 4.68123 15.2127 4.88978 15.08C5.34446 14.7907 9.35565 12.2296 10.1718 11.4134C10.8179 10.7673 10.8179 9.71608 10.1718 9.07002C9.52577 8.42395 8.4745 8.42392 7.82843 9.06998Z" fill="#5D6C7B"/>
</svg>
