<svg width="18" height="18" viewBox="0 0 18 18" fill="none" xmlns="http://www.w3.org/2000/svg">
<g clip-path="url(#clip0_132_1157)">
<path d="M14.4525 5.35819L15.5303 4.28044L14.4698 3.21956L13.3168 4.3725C12.2636 3.62609 11.0345 3.16607 9.75004 3.0375V1.5H11.25V0H6.75003V1.5H8.25004V3.0375C6.96554 3.16607 5.73647 3.62609 4.68322 4.3725L3.53028 3.21956L2.46978 4.28044L3.54753 5.35819C2.54152 6.42334 1.86952 7.75982 1.61451 9.20259C1.3595 10.6454 1.53266 12.1312 2.11261 13.4767C2.69255 14.8222 3.65387 15.9683 4.87786 16.7736C6.10185 17.5788 7.5349 18.008 9.00004 18.008C10.4652 18.008 11.8982 17.5788 13.1222 16.7736C14.3462 15.9683 15.3075 14.8222 15.8875 13.4767C16.4674 12.1312 16.6406 10.6454 16.3856 9.20259C16.1306 7.75982 15.4586 6.42334 14.4525 5.35819ZM9.00004 16.5C7.81335 16.5 6.65331 16.1481 5.66661 15.4888C4.67992 14.8295 3.91088 13.8925 3.45676 12.7961C3.00263 11.6997 2.88381 10.4933 3.11532 9.32946C3.34683 8.16557 3.91828 7.09647 4.75739 6.25736C5.59651 5.41824 6.66561 4.8468 7.82949 4.61529C8.99338 4.38378 10.1998 4.5026 11.2961 4.95672C12.3925 5.41085 13.3296 6.17988 13.9889 7.16658C14.6481 8.15327 15 9.31331 15 10.5C14.9982 12.0908 14.3655 13.6158 13.2407 14.7407C12.1159 15.8655 10.5908 16.4982 9.00004 16.5Z" fill="#5D6C7B"/>
<path d="M8.99998 6.00012V10.5001H4.49998C4.49998 11.3901 4.76391 12.2602 5.25837 13.0002C5.75284 13.7402 6.45564 14.317 7.27791 14.6576C8.10018 14.9982 9.00498 15.0873 9.87789 14.9137C10.7508 14.74 11.5526 14.3114 12.182 13.6821C12.8113 13.0528 13.2399 12.2509 13.4135 11.378C13.5872 10.5051 13.498 9.60031 13.1574 8.77805C12.8168 7.95578 12.2401 7.25298 11.5001 6.75851C10.76 6.26404 9.89 6.00012 8.99998 6.00012Z" fill="#5D6C7B"/>
</g>
<defs>
<clipPath id="clip0_132_1157">
<rect width="18" height="18" fill="white"/>
</clipPath>
</defs>
</svg>
